<svg width="72" height="70" viewBox="0 0 72 70" fill="none" xmlns="http://www.w3.org/2000/svg">
<g clip-path="url(#clip0_228_1143)">
<path d="M35.6411 69.0671C26.2259 69.0671 17.1964 65.4323 10.5388 58.9623C3.88128 52.4923 0.141111 43.7171 0.141112 34.5671C0.141112 25.4172 3.88128 16.642 10.5388 10.172C17.1964 3.70195 26.2259 0.0671367 35.6411 0.0671371C45.0563 0.0671375 54.0859 3.70195 60.7434 10.172C67.4009 16.642 71.1411 25.4172 71.1411 34.5671C71.1411 43.7171 67.4009 52.4923 60.7434 58.9623C54.0859 65.4323 45.0563 69.0671 35.6411 69.0671ZM51.1724 36.7234C51.7608 36.7234 52.3252 36.4962 52.7413 36.0918C53.1574 35.6875 53.3911 35.139 53.3911 34.5671C53.3911 33.9953 53.1574 33.4468 52.7413 33.0424C52.3252 32.6381 51.7608 32.4109 51.1724 32.4109L25.4659 32.4109L34.9932 23.1563C35.4099 22.7514 35.6439 22.2022 35.6439 21.6296C35.6439 21.057 35.4099 20.5079 34.9932 20.103C34.5766 19.6981 34.0116 19.4707 33.4224 19.4707C32.8332 19.4707 32.2681 19.6981 31.8515 20.103L18.539 33.0405C18.3324 33.2408 18.1684 33.4788 18.0566 33.7407C17.9447 34.0027 17.8871 34.2835 17.8871 34.5671C17.8871 34.8508 17.9447 35.1316 18.0566 35.3936C18.1684 35.6555 18.3324 35.8935 18.539 36.0938L31.8515 49.0313C32.2681 49.4361 32.8332 49.6636 33.4224 49.6636C34.0116 49.6636 34.5766 49.4361 34.9932 49.0313C35.4099 48.6264 35.6439 48.0772 35.6439 47.5046C35.6439 46.932 35.4099 46.3829 34.9932 45.978L25.4659 36.7234L51.1724 36.7234Z" fill="#6F8391"/>
</g>
<defs>
<clipPath id="clip0_228_1143">
<rect width="69" height="71" fill="white" transform="translate(71.1411 0.0671387) rotate(90)"/>
</clipPath>
</defs>
</svg>
