<svg width="72" height="70" viewBox="0 0 72 70" fill="none" xmlns="http://www.w3.org/2000/svg">
<g clip-path="url(#clip0_228_1146)">
<path d="M36.4927 0.0671371C45.9079 0.0671367 54.9374 3.70195 61.595 10.1719C68.2525 16.642 71.9927 25.4172 71.9927 34.5671C71.9927 43.7171 68.2525 52.4923 61.595 58.9623C54.9374 65.4323 45.9079 69.0671 36.4927 69.0671C27.0775 69.0671 18.0479 65.4323 11.3904 58.9623C4.73284 52.4923 0.992675 43.7171 0.992674 34.5671C0.992674 25.4172 4.73284 16.642 11.3904 10.172C18.0479 3.70195 27.0775 0.0671375 36.4927 0.0671371ZM20.9614 32.4109C20.373 32.4109 19.8086 32.6381 19.3925 33.0424C18.9764 33.4468 18.7427 33.9953 18.7427 34.5671C18.7427 35.139 18.9764 35.6875 19.3925 36.0918C19.8086 36.4962 20.373 36.7234 20.9614 36.7234L46.6679 36.7234L37.1405 45.978C36.7239 46.3829 36.4899 46.932 36.4899 47.5046C36.4899 48.0772 36.7239 48.6264 37.1405 49.0313C37.5572 49.4361 38.1222 49.6636 38.7114 49.6636C39.3006 49.6636 39.8657 49.4361 40.2823 49.0313L53.5948 36.0938C53.8014 35.8935 53.9654 35.6555 54.0772 35.3936C54.1891 35.1316 54.2466 34.8508 54.2466 34.5671C54.2466 34.2835 54.1891 34.0027 54.0772 33.7407C53.9654 33.4788 53.8014 33.2408 53.5948 33.0405L40.2823 20.103C39.8657 19.6981 39.3006 19.4707 38.7114 19.4707C38.1222 19.4707 37.5572 19.6981 37.1405 20.103C36.7239 20.5079 36.4899 21.057 36.4899 21.6296C36.4899 22.2022 36.7239 22.7514 37.1405 23.1563L46.6679 32.4109L20.9614 32.4109Z" fill="#6F8391"/>
</g>
<defs>
<clipPath id="clip0_228_1146">
<rect width="69" height="71" fill="white" transform="translate(0.992676 69.0671) rotate(-90)"/>
</clipPath>
</defs>
</svg>
