<svg width="130" height="130" viewBox="0 0 130 130" fill="none" xmlns="http://www.w3.org/2000/svg">
<path d="M129.778 54.3667H125.08L118.076 58.0515C117.288 57.6165 116.468 57.248 115.584 57.0264L106.775 54.822V53.8204C110.672 51.1005 113.05 46.607 113.05 41.8205V38.1653C113.05 30.0422 106.685 23.2443 98.8621 23.0074C98.4649 22.9972 98.0739 23.0115 97.6808 23.0309L99.9648 17.6839L88.892 6.61409L82.3646 10.8625C79.8846 9.46577 77.2616 8.3784 74.5376 7.6157L72.9254 0H56.9895L55.3773 7.61775C52.6533 8.38044 50.0283 9.46781 47.5503 10.8646L41.023 6.61614L29.9593 17.6798L32.2045 23.0309C32.1188 23.0268 32.0371 23.0115 31.9513 23.0095C27.9469 22.8931 24.1753 24.3541 21.3104 27.1353C18.4413 29.9145 16.8629 33.6443 16.8629 37.6385V41.8205C16.8629 46.607 19.2387 51.0984 23.1359 53.8184V54.822L17.3897 56.2586L6.97438 50.1846H0.134644V93.5132L20.7059 100.369H24.7124L25.2127 98.6172L31.5184 102.402C31.6215 105.831 34.3711 108.589 37.7966 108.71C37.9171 112.121 40.6585 114.862 44.0697 114.983C44.1901 118.394 46.9316 121.136 50.3427 121.256C50.4673 124.747 53.3261 127.553 56.8456 127.553C58.1524 127.553 59.4338 127.145 60.511 126.419L62.3631 128.055C63.524 129.077 65.0187 129.644 66.5707 129.644H66.9576C70.4372 129.644 73.2685 126.831 73.3124 123.362C76.7542 123.318 79.5416 120.531 79.5855 117.089C83.0293 117.045 85.8187 114.254 85.8585 110.81C89.334 110.728 92.1398 107.889 92.1398 104.394C92.1398 104.184 92.1296 103.976 92.1081 103.767L129.778 84.9336V54.3667ZM108.868 38.1653V41.8205C108.868 45.5319 106.863 48.9992 103.634 50.8687L102.589 51.4731L102.597 58.0903L113.044 60.7L90.0488 72.803V67.1701C90.0488 64.3593 88.9134 61.7853 87.0541 59.8832L94.2308 58.0903V51.468L93.1873 50.8646C89.9609 48.9992 87.9577 45.5319 87.9577 41.8205V37.6385C87.9577 34.7868 89.0849 32.1199 91.1341 30.1341C93.1812 28.1492 95.8971 27.0792 98.7365 27.1895C104.322 27.3569 108.868 32.2812 108.868 38.1653ZM68.1093 71.1592L58.6435 68.1339C54.3298 66.7515 49.6607 66.5453 45.2449 67.5234L44.0462 67.7888V67.1701C44.0462 64.2868 46.0014 61.7833 48.7969 61.0829L60.7744 58.0903V51.468L59.7309 50.8646C56.5045 48.9992 54.5013 45.5319 54.5013 41.8205V37.6385C54.5013 34.7868 55.6285 32.1199 57.6777 30.1341C59.7248 28.1492 62.458 27.0792 65.2801 27.1895C70.866 27.3569 75.4116 32.2812 75.4116 38.1653V41.8205C75.4116 45.5319 73.4063 48.9992 70.1779 50.8687L69.1324 51.4731L69.1405 58.0903L81.116 61.0829C83.9115 61.7833 85.8667 64.2868 85.8667 67.1701V75.0053L85.3501 75.2769H84.0687L71.2132 71.6033C70.2003 71.3164 69.1569 71.199 68.1093 71.1592ZM44.5148 31.296C48.4416 23.6874 56.3453 18.8192 64.9564 18.8192C73.486 18.8192 81.3559 23.6221 85.3123 31.1275C84.3168 33.1236 83.7757 35.334 83.7757 37.6385V41.8205C83.7757 46.607 86.1516 51.0984 90.0488 53.8184V54.822L81.6847 56.9161L73.3185 54.822V53.8204C77.2157 51.1005 79.5936 46.607 79.5936 41.8205V38.1653C79.5936 30.0422 73.2287 23.2443 65.4057 23.0074C61.4033 22.89 57.6297 24.3521 54.7647 27.1333C51.8977 29.9145 50.3193 33.6443 50.3193 37.6385V41.8205C50.3193 46.607 52.6952 51.0984 56.5923 53.8184V54.822L48.2282 56.9161L39.8621 54.822V53.8204C43.7593 51.1005 46.1372 46.607 46.1372 41.8205V38.1653C46.1372 35.7047 45.545 33.3686 44.5148 31.296ZM34.8979 18.6497L41.5784 11.9693L47.4584 15.796L48.5835 15.1058C51.4026 13.3783 54.4492 12.1132 57.6379 11.3506L58.9243 11.0422L60.3793 4.18205H69.5357L70.9865 11.0402L72.273 11.3475C75.4616 12.1112 78.5083 13.3762 81.3273 15.1038L82.4524 15.794L88.3324 11.9672L95.0047 18.6416L92.6329 24.1948C91.0187 24.8891 89.5219 25.8662 88.2191 27.1292C88.1333 27.2129 88.0598 27.3028 87.9761 27.3886C83.0497 19.5574 74.3405 14.6372 64.9564 14.6372C55.505 14.6372 46.7713 19.6034 41.8571 27.5141C40.5421 26.1378 38.9779 25.0229 37.2442 24.2439L34.8979 18.6497ZM27.318 58.0903V51.468L26.2745 50.8646C23.0481 48.9992 21.0449 45.5319 21.0449 41.8205V37.6385C21.0449 34.7868 22.1721 32.1199 24.2213 30.1341C26.2684 28.1492 28.9904 27.0792 31.8237 27.1895C37.4096 27.3569 41.9552 32.2812 41.9552 38.1653V41.8205C41.9552 45.5319 39.9499 48.9992 36.7215 50.8687L35.676 51.4731L35.6841 58.0903L42.8588 59.8832C40.9995 61.7853 39.8641 64.3593 39.8641 67.1701V68.719L33.3419 70.1688L33.5114 69.5766L33.5911 65.7121L22.5631 59.2787L27.318 58.0903ZM4.3167 54.3667H5.84106L20.8795 63.1382L13.2914 93.4897L4.3167 90.4971V54.3667ZM21.3839 96.1872L17.2682 94.816L24.6399 65.3323L29.409 68.1135V68.7108L21.5595 96.1872H21.3839ZM35.6821 102.207C35.6821 101.59 35.9312 100.986 36.3682 100.549L40.0438 96.8733C40.4808 96.4363 41.0853 96.1872 41.702 96.1872C42.9945 96.1872 44.0462 97.2388 44.0462 98.5314C44.0462 99.1481 43.7971 99.7525 43.3601 100.19L39.6844 103.865C39.2474 104.302 38.643 104.551 38.0263 104.551C36.7337 104.551 35.6821 103.5 35.6821 102.207ZM41.9552 108.48C41.9552 107.863 42.2043 107.259 42.6413 106.822L46.3169 103.146C46.7539 102.709 47.3583 102.46 47.975 102.46C49.2676 102.46 50.3193 103.512 50.3193 104.805C50.3193 105.421 50.0701 106.026 49.6331 106.463L45.9575 110.138C45.5205 110.575 44.9161 110.824 44.2994 110.824C43.0068 110.824 41.9552 109.773 41.9552 108.48ZM48.2282 114.753C48.2282 114.137 48.4774 113.532 48.9144 113.095L52.59 109.419C53.027 108.982 53.6314 108.733 54.2481 108.733C55.5407 108.733 56.5923 109.785 56.5923 111.078C56.5923 111.694 56.3432 112.299 55.9062 112.736L52.2306 116.411C51.7936 116.848 51.1892 117.097 50.5725 117.097C49.2799 117.097 48.2282 116.046 48.2282 114.753ZM56.8456 123.371C55.553 123.371 54.5013 122.319 54.5013 121.026C54.5013 120.41 54.7504 119.805 55.1874 119.368L58.8631 115.693C59.3001 115.256 59.9045 115.006 60.5212 115.006C61.8138 115.006 62.8654 116.058 62.8654 117.351C62.8654 117.967 62.6163 118.572 62.1793 119.009L58.5037 122.684C58.0667 123.121 57.4622 123.371 56.8456 123.371ZM66.9576 125.462H66.5707C66.0377 125.462 65.5272 125.268 65.13 124.915L63.5658 123.536L65.1361 121.966C65.6967 121.405 66.1316 120.738 66.4532 120.023L68.3544 121.605C68.8516 122.02 69.1385 122.63 69.1385 123.281C69.1385 124.483 68.1604 125.462 66.9576 125.462ZM85.7095 106.642H85.348C84.8232 106.642 84.3107 106.456 83.9094 106.12L72.5701 96.6701L69.891 99.8843L80.9026 109.059C81.3978 109.474 81.6847 110.084 81.6847 110.735C81.6847 111.937 80.7065 112.915 79.5038 112.915H79.0474C78.5399 112.915 78.0437 112.736 77.6527 112.409L66.295 102.945L63.6159 106.159L74.6274 115.335C75.1247 115.747 75.4116 116.357 75.4116 117.008C75.4116 118.21 74.4334 119.188 73.2307 119.188C72.4282 119.188 71.6461 118.904 71.0304 118.392L66.3634 114.502C65.3352 112.401 63.2228 110.936 60.7489 110.848C60.6284 107.437 57.887 104.695 54.4758 104.575C54.3553 101.164 51.6139 98.4222 48.2027 98.3017C48.0802 94.8109 45.2214 92.0051 41.702 92.0051C39.9836 92.0051 38.302 92.7015 37.087 93.9165L33.4114 97.5921C33.1918 97.8116 33.0101 98.0607 32.8253 98.3078L26.4021 94.4535L32.033 74.746L46.1495 71.6074C49.8527 70.7794 53.757 70.9591 57.3683 72.1149L60.4487 73.1001L50.0058 78.3216C47.6197 79.5172 46.1372 81.9176 46.1372 84.5865V85C46.1372 88.8625 49.2799 92.0051 53.1424 92.0051C54.4115 92.0051 55.6602 91.66 56.7455 91.0056L64.5317 86.3365C66.0959 85.3992 68.1951 85.6044 69.5459 86.8194L87.2134 102.72C87.6861 103.148 87.9577 103.757 87.9577 104.394C87.9577 105.635 86.95 106.642 85.7095 106.642ZM125.596 82.3484L90.3683 99.9639C90.254 99.8424 90.1345 99.727 90.0089 99.6147L72.3445 83.7145C70.7966 82.3178 68.7954 81.55 66.7105 81.55C65.1862 81.55 63.6894 81.9645 62.3784 82.7507L54.5891 87.4218C54.1521 87.6852 53.6529 87.8231 53.1424 87.8231C51.5843 87.8231 50.3193 86.5581 50.3193 85V84.5865C50.3193 83.5093 50.9176 82.5434 51.8794 82.0626L63.5434 76.2306C65.5394 75.231 67.9092 75.0074 70.0605 75.6261L83.2009 79.3793L86.3833 79.459L125.596 58.8203V82.3484Z" fill="#BC2227"/>
</svg>
