<svg width="149" height="40" viewBox="0 0 149 40" fill="none" xmlns="http://www.w3.org/2000/svg">
<rect x="0.190918" width="148.025" height="39.6693" rx="9" fill="white"/>
<path d="M46.1799 9.8291H26.5512C25.2018 9.8291 24.1099 10.9332 24.1099 12.2827L24.0977 27.0042C24.0977 28.3537 25.2018 29.4578 26.5512 29.4578H46.1799C47.5294 29.4578 48.6335 28.3537 48.6335 27.0042V12.2827C48.6335 10.9332 47.5294 9.8291 46.1799 9.8291ZM45.6892 15.043L37.0158 20.4654C36.6232 20.7108 36.108 20.7108 35.7154 20.4654L27.042 15.043C26.9189 14.9739 26.8112 14.8806 26.7253 14.7687C26.6394 14.6568 26.5771 14.5287 26.5421 14.392C26.5072 14.2553 26.5003 14.113 26.522 13.9736C26.5436 13.8342 26.5934 13.7006 26.6681 13.581C26.7429 13.4614 26.8412 13.3582 26.957 13.2776C27.0728 13.1971 27.2037 13.1408 27.3419 13.1124C27.4801 13.0839 27.6226 13.0837 27.7608 13.1119C27.899 13.1401 28.0301 13.1961 28.1461 13.2764L36.3656 18.4167L44.5851 13.2764C44.7011 13.1961 44.8321 13.1401 44.9704 13.1119C45.1086 13.0837 45.2511 13.0839 45.3893 13.1124C45.5274 13.1408 45.6584 13.1971 45.7742 13.2776C45.89 13.3582 45.9883 13.4614 46.063 13.581C46.1378 13.7006 46.1875 13.8342 46.2092 13.9736C46.2308 14.113 46.224 14.2553 46.189 14.392C46.1541 14.5287 46.0918 14.6568 46.0059 14.7687C45.9199 14.8806 45.8122 14.9739 45.6892 15.043Z" fill="#2D2D2D"/>
<path d="M59.2298 14.1981H65.6783V15.7874H60.8008V18.692H65.6783V20.263H60.8008V24.2637H65.6783V25.8347H59.2298V14.1981ZM67.3407 21.286H71.5788V22.8388H67.3407V21.286ZM73.4878 25.8347V18.2992H75.0589V19.4593C75.4303 18.9843 75.7835 18.6372 76.1184 18.418C76.4594 18.1988 76.8491 18.0892 77.2875 18.0892C77.8599 18.0892 78.3075 18.214 78.6302 18.4637C78.959 18.7133 79.2361 19.1122 79.4614 19.6602C79.8572 19.1122 80.2378 18.7133 80.6031 18.4637C80.9746 18.214 81.4039 18.0892 81.891 18.0892C82.4878 18.0892 83.0023 18.3145 83.4346 18.7651C83.867 19.2096 84.0832 19.7394 84.0832 20.3544V25.8347H82.503V20.7654C82.503 19.9312 82.092 19.5141 81.2699 19.5141C80.801 19.5141 80.4022 19.7272 80.0734 20.1534C79.7506 20.5797 79.5893 21.1064 79.5893 21.7336V25.8347H78V20.9755C78 19.989 77.595 19.4958 76.7852 19.4958C76.3041 19.4958 75.8961 19.6967 75.5612 20.0986C75.2263 20.5005 75.0589 20.9968 75.0589 21.5875V25.8347H73.4878ZM92.4589 18.2992H94.0482V25.8347H92.4589V24.3368C91.6856 25.4754 90.7265 26.0448 89.5818 26.0448C88.5892 26.0448 87.7398 25.6551 87.0334 24.8757C86.3331 24.0962 85.983 23.1493 85.983 22.035C85.983 20.9816 86.3362 20.0621 87.0425 19.2766C87.755 18.485 88.5892 18.0892 89.5452 18.0892C90.1359 18.0892 90.6961 18.2505 91.2259 18.5733C91.7556 18.896 92.1667 19.3162 92.4589 19.8337V18.2992ZM92.669 22.0898C92.669 21.4017 92.4224 20.8141 91.9292 20.327C91.4359 19.8337 90.8453 19.5871 90.1572 19.5871C89.4874 19.5871 88.9028 19.8307 88.4035 20.3178C87.9042 20.805 87.6545 21.3774 87.6545 22.035C87.6545 22.7475 87.8981 23.3533 88.3852 23.8527C88.8724 24.352 89.463 24.6016 90.1572 24.6016C90.8453 24.6016 91.4359 24.355 91.9292 23.8618C92.4224 23.3625 92.669 22.7718 92.669 22.0898ZM96.1399 15.824C96.1399 15.4951 96.2617 15.212 96.5053 14.9745C96.7488 14.7309 97.0381 14.6091 97.373 14.6091C97.7018 14.6091 97.985 14.7309 98.2224 14.9745C98.466 15.212 98.5878 15.4951 98.5878 15.824C98.5878 16.1589 98.466 16.4451 98.2224 16.6825C97.985 16.92 97.7018 17.0388 97.373 17.0388C97.0381 17.0388 96.7488 16.92 96.5053 16.6825C96.2617 16.4451 96.1399 16.1589 96.1399 15.824ZM96.5875 18.2992H98.1585V25.8347H96.5875V18.2992ZM100.771 13.9789H102.36V25.8347H100.771V13.9789ZM109.548 18.2992H111.138V22.5465C111.138 23.8557 111.713 24.5103 112.864 24.5103C113.376 24.5103 113.781 24.3368 114.079 23.9897C114.377 23.6365 114.526 23.1554 114.526 22.5465V18.2992H116.097V22.8023C116.097 23.7461 115.79 24.5225 115.175 25.1314C114.56 25.7403 113.774 26.0448 112.818 26.0448C111.844 26.0448 111.056 25.7403 110.453 25.1314C109.85 24.5225 109.548 23.7278 109.548 22.7475V18.2992ZM122.573 19.1944L121.514 20.126C121.24 19.9312 121.002 19.785 120.801 19.6876C120.601 19.5841 120.363 19.5323 120.089 19.5323C119.444 19.5323 119.121 19.7698 119.121 20.2448C119.121 20.5858 119.529 20.9176 120.345 21.2404C121.167 21.557 121.757 21.9071 122.117 22.2908C122.476 22.6744 122.656 23.1372 122.656 23.6791C122.656 24.3124 122.397 24.8665 121.879 25.3415C121.362 25.8104 120.753 26.0448 120.052 26.0448C118.987 26.0448 118.113 25.5516 117.431 24.5651L118.682 23.9623C119.121 24.3885 119.578 24.6016 120.052 24.6016C120.381 24.6016 120.667 24.5133 120.911 24.3368C121.161 24.1541 121.286 23.944 121.286 23.7065C121.286 23.2864 120.853 22.9088 119.989 22.5739C119.124 22.239 118.524 21.901 118.189 21.56C117.86 21.213 117.696 20.7867 117.696 20.2813C117.696 19.6541 117.93 19.1335 118.399 18.7194C118.874 18.2992 119.468 18.0892 120.18 18.0892C120.893 18.0892 121.69 18.4576 122.573 19.1944Z" fill="#2D2D2D"/>
</svg>
