<svg width="25" height="22" viewBox="0 0 25 22" fill="none" xmlns="http://www.w3.org/2000/svg">
<path d="M21.2034 6.67895H19.9766V2.99857C19.9766 1.6491 18.8725 0.544983 17.523 0.544983H10.1622C8.81277 0.544983 7.70866 1.6491 7.70866 2.99857V20.1737H22.4302C23.7796 20.1737 24.8838 19.0696 24.8838 17.7201V10.3593C24.8838 8.32285 23.2399 6.67895 21.2034 6.67895ZM10.1622 2.99857H17.523V6.67895H10.1622V2.99857ZM15.0694 16.4933H10.1622V10.3593H15.0694V16.4933ZM17.523 16.4933C16.8483 16.4933 16.2962 15.9412 16.2962 15.2665C16.2962 14.5918 16.8483 14.0397 17.523 14.0397C18.1977 14.0397 18.7498 14.5918 18.7498 15.2665C18.7498 15.9412 18.1977 16.4933 17.523 16.4933ZM17.523 12.8129C16.8483 12.8129 16.2962 12.2609 16.2962 11.5861C16.2962 10.9114 16.8483 10.3593 17.523 10.3593C18.1977 10.3593 18.7498 10.9114 18.7498 11.5861C18.7498 12.2609 18.1977 12.8129 17.523 12.8129ZM21.2034 16.4933C20.5286 16.4933 19.9766 15.9412 19.9766 15.2665C19.9766 14.5918 20.5286 14.0397 21.2034 14.0397C21.8781 14.0397 22.4302 14.5918 22.4302 15.2665C22.4302 15.9412 21.8781 16.4933 21.2034 16.4933ZM21.2034 12.8129C20.5286 12.8129 19.9766 12.2609 19.9766 11.5861C19.9766 10.9114 20.5286 10.3593 21.2034 10.3593C21.8781 10.3593 22.4302 10.9114 22.4302 11.5861C22.4302 12.2609 21.8781 12.8129 21.2034 12.8129ZM3.41488 5.45215C2.60147 5.45215 1.82137 5.77528 1.2462 6.35045C0.671028 6.92562 0.3479 7.70572 0.3479 8.51914V18.3335C0.3479 19.1469 0.671028 19.927 1.2462 20.5022C1.82137 21.0773 2.60147 21.4005 3.41488 21.4005C4.2283 21.4005 5.0084 21.0773 5.58357 20.5022C6.15874 19.927 6.48186 19.1469 6.48186 18.3335V8.51914C6.48186 8.11637 6.40253 7.71756 6.2484 7.34545C6.09427 6.97335 5.86836 6.63525 5.58357 6.35045C5.29877 6.06566 4.96067 5.83974 4.58857 5.68561C4.21646 5.53148 3.81764 5.45215 3.41488 5.45215Z" fill="white"/>
</svg>
