<svg width="118" height="130" viewBox="0 0 118 130" fill="none" xmlns="http://www.w3.org/2000/svg">
<path d="M100.902 19.9992L100.63 20.2927L88.5144 32.4121C88.5144 32.4121 88.5144 32.4122 88.5143 32.4122C88.4126 32.5139 88.2746 32.571 88.1308 32.571C87.9869 32.571 87.8488 32.5138 87.7471 32.4121L87.3078 31.973H87.3068L84.8579 29.5229L84.8579 29.5229C84.7561 29.4211 84.699 29.2831 84.699 29.1392C84.699 28.9954 84.7561 28.8574 84.8577 28.7557C84.8578 28.7556 84.8578 28.7556 84.8579 28.7555L96.9385 16.6734L97.2693 16.3665C97.3706 16.2725 97.5043 16.2212 97.6425 16.2235C97.78 16.2258 97.9113 16.2808 98.0093 16.3772C98.0098 16.3777 98.0103 16.3782 98.0109 16.3787L100.89 19.2577C100.89 19.2582 100.891 19.2587 100.891 19.2592C100.988 19.3572 101.043 19.4885 101.045 19.626C101.047 19.7642 100.996 19.8979 100.902 19.9992ZM97.6672 14.7237C97.1421 14.7151 96.6339 14.9097 96.249 15.267L102.002 21.0196C102.359 20.6346 102.553 20.1264 102.545 19.6013C102.536 19.0762 102.325 18.5747 101.955 18.2017L99.0669 15.3134C98.6939 14.9437 98.1924 14.7324 97.6672 14.7237Z" fill="white" stroke="#BC2227" stroke-width="3"/>
<path d="M59.8648 20.0965H58.3449L57.2828 20.0951C57.1437 20.0949 57.01 20.0409 56.9099 19.9444C56.8097 19.8479 56.7507 19.7164 56.7454 19.5774L56.738 19.3881V2.04415C56.738 1.74428 56.9809 1.50141 57.2808 1.50141H58.7808V1.5H59.8648V1.50281H61.3648C61.6647 1.50281 61.9076 1.74569 61.9076 2.04555V19.3945L61.9003 19.5753C61.8886 19.8699 61.6499 20.0951 61.3648 20.0951H59.8648V20.0965Z" fill="white" stroke="#BC2227" stroke-width="3"/>
<path d="M115.848 55.37L115.663 55.3773H98.3157C98.0165 55.3773 97.7729 55.1351 97.7729 54.8332V50.7491C97.7729 50.4485 98.0152 50.2064 98.3157 50.2064H115.666L115.847 50.2136C116.142 50.2254 116.367 50.4634 116.367 50.7491L116.367 54.8312C116.367 54.8315 116.367 54.8318 116.367 54.8321C116.366 54.9712 116.312 55.1048 116.216 55.205L117.296 56.2453L116.216 55.205C116.119 55.3054 115.987 55.3646 115.848 55.37Z" fill="white" stroke="#BC2227" stroke-width="3"/>
<path d="M30.8788 58.472V58.4713C30.8788 42.7608 43.613 30.0266 59.3235 30.0266C75.0339 30.0266 87.7682 42.7608 87.7682 58.4727C87.7682 64.1473 86.0744 69.4106 83.2005 73.8532C78.2041 81.0723 75.064 90.8205 74.7388 101.563C74.7192 101.579 74.6982 101.595 74.6762 101.609L74.7348 101.702L74.6761 101.609C74.6025 101.655 74.5189 101.683 74.4326 101.69L74.43 101.69C74.4213 101.689 74.4105 101.687 74.398 101.686C74.3789 101.683 74.3561 101.68 74.3315 101.677L72.6657 101.492V101.692H45.88V101.461L44.1871 101.681L44.1432 101.687L44.1137 101.691C44.0376 101.685 43.9637 101.663 43.8966 101.625C43.6301 92.4988 41.3303 84.093 37.5895 77.3402H37.8837L36.1799 74.9657C32.7302 70.1581 30.876 64.3892 30.8788 58.472Z" fill="white" stroke="#BC2227" stroke-width="3"/>
<path d="M45.8801 122.297H72.6658V122.528L74.3587 122.309L74.4033 122.303L74.432 122.299C74.7146 122.318 74.9365 122.552 74.9365 122.84V127.601C74.9365 127.889 74.7126 128.124 74.4293 128.142L74.4199 128.141C74.4002 128.139 74.3676 128.134 74.3315 128.13L72.6658 127.945V128.144H45.8801V127.913L44.1873 128.132L44.1433 128.138L44.1134 128.142C43.831 128.123 43.608 127.888 43.608 127.601V122.84C43.608 122.554 43.8295 122.319 44.1106 122.299L44.116 122.3C44.1379 122.303 44.1738 122.308 44.2144 122.312L45.8801 122.497V122.297Z" fill="white" stroke="#BC2227" stroke-width="3"/>
<path d="M45.8801 109.017H72.6658V109.248L74.3587 109.028L74.4033 109.022L74.432 109.018C74.7145 109.038 74.9365 109.272 74.9365 109.56V114.322C74.9365 114.608 74.7155 114.842 74.4348 114.863L74.4301 114.862C74.4081 114.859 74.3722 114.854 74.3315 114.85L72.6658 114.665V114.863H45.8801V114.632L44.1872 114.852L44.1433 114.858L44.1134 114.862C43.831 114.843 43.608 114.608 43.608 114.32V109.636L43.6093 109.622L43.6129 109.581L43.6143 109.539C43.6188 109.399 43.6775 109.267 43.7781 109.169C43.8687 109.081 43.9869 109.028 44.1118 109.018L44.116 109.019C44.1379 109.022 44.1738 109.027 44.2144 109.032L45.8801 109.217V109.017Z" fill="white" stroke="#BC2227" stroke-width="3"/>
<path d="M2.82326 51.8017H20.1718L20.3569 51.809C20.4961 51.8145 20.6277 51.8735 20.7244 51.9738L21.8019 50.9351L20.7244 51.9738C20.8207 52.0737 20.8749 52.2069 20.8756 52.3456V56.4273C20.8749 56.5661 20.8207 56.6993 20.7244 56.7992L21.7688 57.806L20.7244 56.7992C20.6277 56.8995 20.4961 56.9585 20.3569 56.964L20.2075 56.9698H2.82326C2.52272 56.9698 2.28052 56.7263 2.28052 56.4285V52.343C2.28052 52.0452 2.52272 51.8017 2.82326 51.8017Z" fill="white" stroke="#BC2227" stroke-width="3"/>
<path d="M30.8652 31.7102L30.5757 31.4441L18.4593 19.3263C18.3573 19.2242 18.3 19.0859 18.3 18.9417C18.3 18.7976 18.3572 18.6595 18.4588 18.5575C18.4589 18.5575 18.4589 18.5574 18.459 18.5574C18.4591 18.5573 18.4592 18.5572 18.4593 18.5571L21.3461 15.6702C21.3463 15.6701 21.3464 15.6699 21.3465 15.6698C21.4485 15.5682 21.5866 15.5112 21.7305 15.5112C21.8745 15.5112 22.0126 15.5682 22.1146 15.6698C22.1147 15.67 22.1148 15.6701 22.115 15.6702L34.1906 27.7445L34.5039 28.0817C34.5979 28.1827 34.649 28.3162 34.6468 28.4542C34.6445 28.5915 34.5894 28.7227 34.493 28.8205C34.4926 28.8209 34.4921 28.8214 34.4917 28.8218L32.0465 31.2681H32.0453L31.606 31.7075C31.4139 31.8996 31.0907 31.9175 30.8652 31.7102Z" fill="white" stroke="#BC2227" stroke-width="3"/>
</svg>
