<svg width="124" height="108" viewBox="0 0 124 108" fill="none" xmlns="http://www.w3.org/2000/svg">
<path fill-rule="evenodd" clip-rule="evenodd" d="M40.5235 100.081C40.8548 100.613 41.0346 101.225 41.0435 101.851C41.0435 105.111 35.9835 107.761 29.7635 107.761C23.5435 107.761 18.4535 105.111 18.4535 101.851C18.46 101.226 18.6363 100.614 18.9635 100.081C20.4035 102.481 24.6735 104.221 29.7235 104.221C34.7735 104.221 39.0535 102.481 40.4835 100.081H40.5235ZM75.2635 97.5813C75.6725 98.2393 75.8938 98.9966 75.9035 99.7713C75.9035 103.821 69.6235 107.121 61.9035 107.121C54.1835 107.121 47.9035 103.821 47.9035 99.7713C47.9148 98.9969 48.136 98.24 48.5435 97.5813C50.3335 100.581 55.6435 102.721 61.9135 102.721C68.1835 102.721 73.4535 100.561 75.2635 97.5813ZM75.2635 88.7013C75.6728 89.3629 75.8941 90.1235 75.9035 90.9013C75.9035 94.9013 69.6235 98.2413 61.9035 98.2413C54.1835 98.2413 47.9035 94.9513 47.9035 90.9013C47.9145 90.1237 48.1356 89.3635 48.5435 88.7013C50.3335 91.7013 55.6435 93.8513 61.9135 93.8513C68.1835 93.8513 73.4535 91.6813 75.2635 88.7013ZM66.9535 70.2013L66.7935 72.0213L59.9135 71.3913C60.4856 72.1204 60.8886 72.9675 61.0935 73.8713L59.4535 73.7513C59.2938 73.174 59.0404 72.6267 58.7035 72.1313C58.3619 71.5743 57.8648 71.1294 57.2735 70.8513L57.3935 69.3913L66.9535 70.2213V70.2013ZM61.8935 67.3913C68.2435 67.3913 73.4535 69.3913 73.4535 71.8613C73.4535 74.3313 68.2435 76.3913 61.8935 76.3913C55.5435 76.3913 50.3835 74.3913 50.3835 71.8713C50.3835 69.3513 55.5435 67.3913 61.8935 67.3913ZM61.8935 65.8913C69.6235 65.8913 75.8935 69.1813 75.8935 73.2313C75.8935 77.2813 69.6135 80.5713 61.8935 80.5713C54.1735 80.5713 47.8935 77.2813 47.8935 73.2313C47.8935 69.1813 54.1735 65.8913 61.8935 65.8913ZM75.3035 80.0813C75.6896 80.7179 75.8969 81.4468 75.9035 82.1913C75.9035 86.1913 69.6235 89.5313 61.9035 89.5313C54.1835 89.5313 47.9035 86.2413 47.9035 82.1913C47.9087 81.4466 48.1161 80.7173 48.5035 80.0813C50.2235 83.0813 55.5735 85.3213 61.9135 85.3213C68.2535 85.3213 73.6035 83.1013 75.3235 80.0813H75.3035ZM35.5335 66.7813C35.5335 67.1791 35.3755 67.5607 35.0942 67.842C34.8129 68.1233 34.4314 68.2813 34.0335 68.2813C33.6357 68.2813 33.2542 68.1233 32.9729 67.842C32.6916 67.5607 32.5335 67.1791 32.5335 66.7813V35.1213H3.45352V100.971H8.61352C9.01135 100.971 9.39288 101.129 9.67418 101.411C9.95549 101.692 10.1135 102.073 10.1135 102.471C10.1135 102.869 9.95549 103.251 9.67418 103.532C9.39288 103.813 9.01135 103.971 8.61352 103.971H1.94352C1.74701 103.971 1.55244 103.932 1.37101 103.857C1.18958 103.781 1.02488 103.671 0.886384 103.531C0.747894 103.392 0.63835 103.227 0.564061 103.045C0.489772 102.863 0.452206 102.668 0.453525 102.471V34.3213C0.458651 33.7384 0.68781 33.1799 1.09352 32.7613C1.50972 32.352 2.0698 32.1223 2.65352 32.1213H32.5435V3.01132C32.5422 2.6687 32.6097 2.32931 32.742 2.01324C32.8742 1.69718 33.0686 1.41089 33.3135 1.17132C33.5548 0.925174 33.8426 0.729455 34.1602 0.595549C34.4778 0.461642 34.8189 0.39222 35.1635 0.391322H88.3835C88.7277 0.389799 89.0686 0.457139 89.3863 0.589377C89.704 0.721615 89.9921 0.91608 90.2335 1.16132L90.3535 1.28132C90.7728 1.7608 91.0069 2.37439 91.0135 3.01132V32.1213H121.134C121.714 32.1249 122.27 32.3545 122.684 32.7613C123.09 33.175 123.32 33.7311 123.324 34.3113V102.461C123.324 102.856 123.167 103.235 122.887 103.515C122.608 103.794 122.229 103.951 121.834 103.951H114.594C114.196 103.951 113.814 103.793 113.533 103.512C113.252 103.231 113.094 102.849 113.094 102.451C113.094 102.053 113.252 101.672 113.533 101.391C113.814 101.109 114.196 100.951 114.594 100.951H120.344V35.1213H91.0035V65.2313C91.0035 65.6291 90.8455 66.0107 90.5642 66.292C90.2829 66.5733 89.9014 66.7313 89.5035 66.7313C89.1057 66.7313 88.7242 66.5733 88.4429 66.292C88.1616 66.0107 88.0035 65.6291 88.0035 65.2313V3.39132H35.5335V66.7813ZM104.454 71.3913H113.124C113.264 71.3913 113.374 71.4713 113.374 71.5613V76.4313C113.374 76.5413 113.264 76.6213 113.124 76.6213H104.454C104.314 76.6213 104.204 76.5413 104.204 76.4313V71.5913C104.204 71.5013 104.314 71.4213 104.454 71.4213V71.3913ZM10.4535 71.3913H19.1335C19.2635 71.3913 19.3835 71.4713 19.3835 71.5613V76.4313C19.3835 76.5413 19.2635 76.6213 19.1335 76.6213H10.5135C10.3835 76.6213 10.2635 76.5413 10.2635 76.4313V71.5913C10.2635 71.5013 10.3835 71.4213 10.5135 71.4213L10.4535 71.3913ZM42.2235 9.17132H81.3335C81.492 9.17262 81.6486 9.20528 81.7943 9.26742C81.9401 9.32957 82.0721 9.41996 82.1827 9.53338C82.2934 9.6468 82.3804 9.78101 82.4389 9.92827C82.4974 10.0755 82.5262 10.2329 82.5235 10.3913V24.2313C82.5132 24.5409 82.3836 24.8345 82.1618 25.0506C81.94 25.2668 81.6432 25.3889 81.3335 25.3913H42.2235C41.9087 25.3887 41.6076 25.2625 41.385 25.0399C41.1624 24.8173 41.0361 24.5161 41.0335 24.2013V10.3913C41.0335 10.0757 41.1589 9.77303 41.3821 9.54986C41.6052 9.3267 41.9079 9.20132 42.2235 9.20132V9.17132ZM101.124 58.5513H113.124C113.264 58.5513 113.374 58.6313 113.374 58.7313V63.6013C113.374 63.7113 113.264 63.7913 113.124 63.7913H101.124C100.994 63.7913 100.874 63.7113 100.874 63.6013V58.7313C100.874 58.6313 100.994 58.5513 101.124 58.5513ZM98.8935 46.7813H113.144C113.284 46.7813 113.394 46.8613 113.394 46.9613V51.8413C113.394 51.9413 113.284 52.0213 113.144 52.0213H98.8935C98.7635 52.0213 98.6535 51.9413 98.6535 51.8413V46.9613C98.6535 46.8613 98.7635 46.7813 98.8935 46.7813ZM10.5135 58.5513H22.5135C22.6535 58.5513 22.7635 58.6313 22.7635 58.7313V63.6013C22.7635 63.7113 22.6535 63.7913 22.5135 63.7913H10.5135C10.3835 63.7913 10.2635 63.7113 10.2635 63.6013V58.7313C10.2635 58.6313 10.3835 58.5513 10.5135 58.5513ZM10.5135 46.7813H24.7635C24.9035 46.7813 25.0135 46.8613 25.0135 46.9613V51.8413C25.0135 51.9413 24.9035 52.0213 24.7635 52.0213H10.5135C10.3835 52.0213 10.2635 51.9413 10.2635 51.8413V46.9613C10.2635 46.8613 10.3835 46.7813 10.5135 46.7813ZM72.5135 49.0213H81.3135C81.379 49.0238 81.4412 49.0509 81.4876 49.0973C81.5339 49.1437 81.5611 49.2058 81.5635 49.2713V55.8413L81.3135 56.0913H72.4535C72.388 56.0888 72.3258 56.0617 72.2795 56.0154C72.2331 55.969 72.206 55.9068 72.2035 55.8413V49.2713C72.206 49.2058 72.2331 49.1437 72.2795 49.0973C72.3258 49.0509 72.388 49.0238 72.4535 49.0213H72.5135ZM57.3935 49.0213H66.1935C66.259 49.0238 66.3212 49.0509 66.3676 49.0973C66.4139 49.1437 66.441 49.2058 66.4435 49.2713V55.8413C66.441 55.9068 66.4139 55.969 66.3676 56.0154C66.3212 56.0617 66.259 56.0888 66.1935 56.0913H57.3935C57.328 56.0888 57.2659 56.0617 57.2195 56.0154C57.1731 55.969 57.146 55.9068 57.1435 55.8413V49.2713C57.146 49.2058 57.1731 49.1437 57.2195 49.0973C57.2659 49.0509 57.328 49.0238 57.3935 49.0213ZM42.2735 49.0213H51.0735C51.1398 49.0213 51.2034 49.0477 51.2503 49.0945C51.2972 49.1414 51.3235 49.205 51.3235 49.2713V55.8413C51.3235 55.9076 51.2972 55.9712 51.2503 56.0181C51.2034 56.065 51.1398 56.0913 51.0735 56.0913H42.2535C42.188 56.0888 42.1259 56.0617 42.0795 56.0154C42.0331 55.969 42.006 55.9068 42.0035 55.8413V49.2713C42.006 49.2058 42.0331 49.1437 42.0795 49.0973C42.1259 49.0509 42.188 49.0238 42.2535 49.0213H42.2735ZM72.4535 32.5113H81.2535C81.319 32.5138 81.3812 32.5409 81.4276 32.5873C81.4739 32.6337 81.5011 32.6958 81.5035 32.7613V42.1213C81.5009 42.1859 81.4735 42.2469 81.4269 42.2917C81.3802 42.3364 81.3181 42.3614 81.2535 42.3613H72.4535C72.3889 42.3614 72.3268 42.3364 72.2802 42.2917C72.2336 42.2469 72.2061 42.1859 72.2035 42.1213V32.7613C72.2035 32.695 72.2299 32.6314 72.2767 32.5845C72.3236 32.5377 72.3872 32.5113 72.4535 32.5113ZM57.3335 32.5113H66.1335C66.199 32.5138 66.2612 32.5409 66.3076 32.5873C66.3539 32.6337 66.3811 32.6958 66.3835 32.7613V42.1213C66.3809 42.1859 66.3535 42.2469 66.3069 42.2917C66.2602 42.3364 66.1981 42.3614 66.1335 42.3613H57.3335C57.2689 42.3614 57.2068 42.3364 57.1602 42.2917C57.1136 42.2469 57.0861 42.1859 57.0835 42.1213V32.7613C57.0835 32.695 57.1099 32.6314 57.1567 32.5845C57.2036 32.5377 57.2672 32.5113 57.3335 32.5113ZM42.2135 32.5113H51.0135C51.0798 32.5113 51.1434 32.5377 51.1903 32.5845C51.2372 32.6314 51.2635 32.695 51.2635 32.7613V42.1213C51.2609 42.1859 51.2335 42.2469 51.1869 42.2917C51.1403 42.3364 51.0781 42.3614 51.0135 42.3613H42.2535C42.1889 42.3614 42.1268 42.3364 42.0802 42.2917C42.0336 42.2469 42.0061 42.1859 42.0035 42.1213V32.7613C42.0035 32.695 42.0299 32.6314 42.0767 32.5845C42.1236 32.5377 42.1872 32.5113 42.2535 32.5113H42.2135ZM104.744 100.081C105.072 100.614 105.249 101.226 105.254 101.851C105.254 105.111 100.254 107.761 93.9835 107.761C87.7135 107.761 82.7035 105.111 82.7035 101.851C82.7135 101.225 82.8932 100.613 83.2235 100.081C84.6635 102.481 88.9335 104.221 93.9835 104.221C99.0335 104.221 103.314 102.481 104.744 100.081ZM98.0935 85.1913L97.9635 86.6613L92.4535 86.1713C92.9098 86.7609 93.2308 87.4437 93.3935 88.1713L92.0635 88.0613C91.9414 87.593 91.7384 87.1497 91.4635 86.7513C91.1846 86.3141 90.7852 85.9668 90.3135 85.7513L90.4535 84.5213L98.1435 85.1913H98.0935ZM94.0235 82.8913C99.1335 82.8913 103.284 84.5213 103.284 86.5213C103.284 88.5213 99.1335 90.1613 94.0235 90.1613C88.9135 90.1613 84.7535 88.5313 84.7535 86.5213C84.7535 84.5113 88.9035 82.8913 94.0235 82.8913ZM94.0235 81.6813C100.244 81.6813 105.294 84.3313 105.294 87.6013C105.294 90.8713 100.294 93.5113 94.0235 93.5113C87.7535 93.5113 82.7435 90.8613 82.7435 87.6013C82.7435 84.3413 87.8035 81.6813 94.0235 81.6813ZM104.824 93.1413C105.124 93.6582 105.285 94.2437 105.294 94.8413C105.294 98.1013 100.294 100.751 94.0235 100.751C87.7535 100.751 82.7435 98.1013 82.7435 94.8413C82.749 94.242 82.9148 93.655 83.2235 93.1413C84.6135 95.5813 88.9235 97.3613 94.0235 97.3613C99.1235 97.3613 103.434 95.5813 104.824 93.1413ZM33.8235 85.1413L33.6935 86.6113L28.1635 86.1213C28.6221 86.7095 28.9433 87.3929 29.1035 88.1213L27.7735 88.0113C27.6514 87.543 27.4484 87.0997 27.1735 86.7013C26.8946 86.2641 26.4952 85.9168 26.0235 85.7013L26.1335 84.5113L33.8235 85.1813V85.1413ZM29.7535 82.8413C34.8735 82.8413 39.0235 84.4713 39.0235 86.4713C39.0235 88.4713 34.8735 90.1113 29.7535 90.1113C24.6335 90.1113 20.4935 88.4813 20.4935 86.4713C20.4935 84.4613 24.6435 82.8413 29.7535 82.8413ZM29.7535 81.6313C35.9735 81.6313 41.0335 84.2813 41.0335 87.5513C41.0335 90.8213 35.9735 93.4613 29.7535 93.4613C23.5335 93.4613 18.4535 90.8613 18.4535 87.6013C18.4535 84.3413 23.5035 81.6813 29.7235 81.6813L29.7535 81.6313ZM40.5535 93.0913C40.8609 93.6056 41.0266 94.1922 41.0335 94.7913C41.0335 98.0513 35.9735 100.701 29.7535 100.701C23.5335 100.701 18.4535 98.1013 18.4535 94.8413C18.4555 94.2428 18.6178 93.6558 18.9235 93.1413C20.3535 95.5813 24.6635 97.3913 29.7635 97.3913C34.8635 97.3913 39.1735 95.6113 40.5635 93.1713L40.5535 93.0913Z" fill="#6F8391"/>
</svg>
