<svg width="187" height="46" viewBox="0 0 187 46" fill="none" xmlns="http://www.w3.org/2000/svg">
<rect x="0.992676" y="0.506172" width="185.249" height="45.396" rx="7" fill="#BC1818"/>
<path d="M35.2258 16.494H37.0093V27.9207H41.3125V29.7042H35.2258V16.494ZM51.5053 25.7743H44.2055C44.3645 26.6523 44.7239 27.2951 45.2839 27.703C45.8507 28.1039 46.4659 28.3044 47.1296 28.3044C48.1526 28.3044 49.0098 27.8793 49.7011 27.029L51.018 28.0244C50.0294 29.3033 48.7057 29.9427 47.0466 29.9427C45.7747 29.9427 44.7101 29.5072 43.8529 28.6362C42.9957 27.7652 42.5672 26.6834 42.5672 25.3907C42.5672 24.181 42.9992 23.1337 43.8633 22.2489C44.7343 21.3571 45.7954 20.9112 47.0466 20.9112C48.2771 20.9112 49.3313 21.364 50.2092 22.2696C51.0871 23.1682 51.5191 24.3365 51.5053 25.7743ZM44.3921 24.333H49.6181C49.0375 23.1579 48.1803 22.5703 47.0466 22.5703C45.8092 22.5703 44.9244 23.1579 44.3921 24.333ZM60.7856 21.1497H62.5899V29.7042H60.7856V28.0037C59.9077 29.2964 58.819 29.9427 57.5194 29.9427C56.3926 29.9427 55.4283 29.5003 54.6264 28.6155C53.8314 27.7306 53.434 26.6557 53.434 25.3907C53.434 24.1948 53.8349 23.151 54.6368 22.2592C55.4456 21.3606 56.3926 20.9112 57.4779 20.9112C58.1484 20.9112 58.7844 21.0944 59.3858 21.4608C59.9872 21.8272 60.4538 22.3042 60.7856 22.8917V21.1497ZM61.0241 25.4529C61.0241 24.6718 60.7442 24.0047 60.1842 23.4517C59.6243 22.8917 58.9538 22.6118 58.1726 22.6118C57.4122 22.6118 56.7486 22.8883 56.1818 23.4413C55.6149 23.9943 55.3315 24.6441 55.3315 25.3907C55.3315 26.1995 55.608 26.8873 56.161 27.4541C56.714 28.021 57.3846 28.3044 58.1726 28.3044C58.9538 28.3044 59.6243 28.0244 60.1842 27.4645C60.7442 26.8977 61.0241 26.2271 61.0241 25.4529ZM67.2974 21.1497V22.9125C67.6984 22.2074 68.0889 21.6993 68.4691 21.3882C68.8563 21.0702 69.3574 20.9112 69.9727 20.9112C70.1455 20.9112 70.3943 20.9527 70.7192 21.0357L70.1697 22.8399C69.824 22.7708 69.5959 22.7362 69.4853 22.7362C68.877 22.7362 68.3655 22.9505 67.9507 23.3791C67.5428 23.8008 67.3389 24.3296 67.3389 24.9656V29.7042H65.5347V21.1497H67.2974ZM72.4716 29.7042V21.1497H74.2344V22.5703C74.7528 21.9965 75.2229 21.5783 75.6445 21.3156C76.0662 21.046 76.5363 20.9112 77.0547 20.9112C77.829 20.9112 78.4891 21.167 79.0352 21.6786C79.5883 22.1901 79.8648 22.8053 79.8648 23.5243V29.7042H78.0605V24.0531C78.0605 23.5899 77.9085 23.2063 77.6043 22.9021C77.3071 22.5979 76.9269 22.4459 76.4637 22.4459C75.8623 22.4459 75.3438 22.7016 74.9083 23.2132C74.4728 23.7178 74.2551 24.3296 74.2551 25.0485V29.7042H72.4716ZM99.058 15.9444L102.666 29.7042H100.904L98.7158 21.2949L94.9518 30.2123L91.1774 21.2327L88.9688 29.7042H87.2061L90.8145 15.9444L94.9518 25.7951L99.058 15.9444ZM103.89 25.3907C103.89 24.2224 104.35 23.1855 105.269 22.28C106.195 21.3675 107.256 20.9112 108.452 20.9112C109.683 20.9112 110.758 21.3606 111.677 22.2592C112.597 23.151 113.056 24.1948 113.056 25.3907C113.056 26.5935 112.603 27.6546 111.698 28.574C110.799 29.4865 109.759 29.9427 108.577 29.9427C107.312 29.9427 106.213 29.4899 105.279 28.5844C104.353 27.6788 103.89 26.6142 103.89 25.3907ZM111.314 25.3907C111.314 24.6649 111.038 24.0358 110.485 23.5035C109.932 22.9643 109.275 22.6947 108.515 22.6947C107.733 22.6947 107.059 22.9678 106.493 23.5139C105.933 24.0531 105.653 24.6994 105.653 25.4529C105.653 26.1718 105.936 26.8009 106.503 27.3401C107.077 27.8793 107.747 28.1489 108.515 28.1489C109.261 28.1489 109.914 27.8724 110.474 27.3193C111.034 26.7663 111.314 26.1234 111.314 25.3907ZM116.986 21.1497V22.9125C117.387 22.2074 117.778 21.6993 118.158 21.3882C118.545 21.0702 119.046 20.9112 119.661 20.9112C119.834 20.9112 120.083 20.9527 120.408 21.0357L119.858 22.8399C119.513 22.7708 119.285 22.7362 119.174 22.7362C118.566 22.7362 118.054 22.9505 117.639 23.3791C117.232 23.8008 117.028 24.3296 117.028 24.9656V29.7042H115.223V21.1497H116.986ZM130.601 25.7743H123.301C123.46 26.6523 123.819 27.2951 124.379 27.703C124.946 28.1039 125.561 28.3044 126.225 28.3044C127.248 28.3044 128.105 27.8793 128.797 27.029L130.113 28.0244C129.125 29.3033 127.801 29.9427 126.142 29.9427C124.87 29.9427 123.806 29.5072 122.948 28.6362C122.091 27.7652 121.663 26.6834 121.663 25.3907C121.663 24.181 122.095 23.1337 122.959 22.2489C123.83 21.3571 124.891 20.9112 126.142 20.9112C127.372 20.9112 128.427 21.364 129.305 22.2696C130.183 23.1682 130.615 24.3365 130.601 25.7743ZM123.488 24.333H128.714C128.133 23.1579 127.276 22.5703 126.142 22.5703C124.905 22.5703 124.02 23.1579 123.488 24.333Z" fill="white"/>
<path fill-rule="evenodd" clip-rule="evenodd" d="M139.646 24.2042C139.646 24.3368 139.699 24.464 139.792 24.5578C139.886 24.6516 140.013 24.7042 140.146 24.7042L151.939 24.7042L148.792 27.8502C148.745 27.8967 148.708 27.9519 148.683 28.0127C148.658 28.0734 148.645 28.1385 148.645 28.2042C148.645 28.27 148.658 28.3351 148.683 28.3958C148.708 28.4566 148.745 28.5118 148.792 28.5582C148.838 28.6047 148.894 28.6416 148.954 28.6668C149.015 28.6919 149.08 28.7049 149.146 28.7049C149.212 28.7049 149.277 28.6919 149.337 28.6668C149.398 28.6416 149.453 28.6047 149.5 28.5582L153.5 24.5582C153.546 24.5118 153.583 24.4566 153.609 24.3959C153.634 24.3351 153.647 24.27 153.647 24.2042C153.647 24.1385 153.634 24.0734 153.609 24.0126C153.583 23.9519 153.546 23.8967 153.5 23.8502L149.5 19.8502C149.453 19.8038 149.398 19.7669 149.337 19.7417C149.277 19.7166 149.212 19.7036 149.146 19.7036C149.08 19.7036 149.015 19.7166 148.954 19.7417C148.894 19.7669 148.838 19.8038 148.792 19.8502C148.745 19.8967 148.708 19.9519 148.683 20.0127C148.658 20.0734 148.645 20.1385 148.645 20.2042C148.645 20.27 148.658 20.3351 148.683 20.3958C148.708 20.4566 148.745 20.5118 148.792 20.5582L151.939 23.7042L140.146 23.7042C140.013 23.7042 139.886 23.7569 139.792 23.8507C139.699 23.9445 139.646 24.0716 139.646 24.2042Z" fill="white"/>
</svg>
