<svg width="100" height="102" viewBox="0 0 100 102" fill="none" xmlns="http://www.w3.org/2000/svg">
<path d="M93.6243 31.6761L73.9095 40.8763L61.1496 28.8831V21.2163L73.9095 9.22307L93.6243 18.4233C95.7053 19.4091 98.1149 18.4781 99.1007 16.4518C100.086 14.3708 99.1554 11.9612 97.1292 10.9755L75.6619 0.953796C74.6439 0.473443 73.502 0.320828 72.3936 0.517006C71.2852 0.713184 70.2649 1.24849 69.4737 2.04906L59.9448 10.8112C59.4532 10.138 58.8109 9.58922 58.0691 9.20883C57.3274 8.82845 56.5069 8.62702 55.6733 8.62067C52.6613 8.62067 50.1969 11.085 50.1969 14.097V19.5734H32.7822C30.1535 12.1803 22.7057 7.14206 14.0531 9.00402C7.70053 10.3731 2.27896 15.8494 1.12892 22.3115C-0.0758711 29.5403 3.64804 35.8381 9.23391 39.1787L23.2533 85.2894H6.38621V101.718H77.5787V85.2894H57.7543L30.5369 34.7428C31.4679 33.4285 32.2345 32.0594 32.7822 30.526H50.1969V36.0024C50.1969 39.0144 52.6613 41.4787 55.6733 41.4787C57.4257 41.4787 58.9591 40.6025 59.9448 39.2882L69.4737 48.0503C71.1166 49.6932 73.5809 50.1313 75.6619 49.1456L97.1292 39.1239C99.2102 38.1381 100.086 35.7286 99.1007 33.6475C98.6343 32.6614 97.7961 31.9002 96.7697 31.5307C95.7433 31.1612 94.6123 31.2135 93.6243 31.6761ZM17.3389 30.526C14.3269 30.526 11.8626 28.0617 11.8626 25.0497C11.8626 22.0377 14.3269 19.5734 17.3389 19.5734C20.3509 19.5734 22.8152 22.0377 22.8152 25.0497C22.8152 28.0617 20.3509 30.526 17.3389 30.526Z" fill="#6F8391"/>
</svg>
