<svg width="22" height="22" viewBox="0 0 22 22" fill="none" xmlns="http://www.w3.org/2000/svg">
<path d="M14.244 15.2869L16.0643 13.4666C16.3095 13.2244 16.6197 13.0587 16.9573 12.9894C17.2949 12.9202 17.6453 12.9504 17.966 13.0765L20.1845 13.9623C20.5086 14.0938 20.7865 14.3184 20.9832 14.6076C21.1799 14.8969 21.2866 15.2379 21.2898 15.5876V19.6509C21.2879 19.8889 21.2379 20.124 21.1427 20.3421C21.0476 20.5602 20.9093 20.7567 20.7362 20.92C20.5631 21.0832 20.3587 21.2097 20.1354 21.2919C19.9121 21.3741 19.6745 21.4102 19.4369 21.3982C3.89061 20.4311 0.753726 7.26594 0.160481 2.22742C0.132942 1.97999 0.158104 1.72953 0.23431 1.49253C0.310516 1.25553 0.436041 1.03734 0.602625 0.852334C0.769209 0.667326 0.973079 0.519685 1.20082 0.419125C1.42856 0.318565 1.67501 0.267365 1.92396 0.268893H5.84914C6.1994 0.26993 6.54135 0.375732 6.83099 0.572691C7.12064 0.76965 7.34474 1.04876 7.47446 1.37412L8.36027 3.59269C8.4905 3.91213 8.52373 4.26285 8.4558 4.60106C8.38787 4.93926 8.22179 5.24996 7.97832 5.49433L6.15795 7.3147C6.15795 7.3147 7.20629 14.4093 14.244 15.2869Z" fill="white"/>
</svg>
