<svg width="124" height="110" viewBox="0 0 124 110" fill="none" xmlns="http://www.w3.org/2000/svg">
<path fill-rule="evenodd" clip-rule="evenodd" d="M3.78945 56.903H21.9895C22.8108 56.9056 23.5978 57.2331 24.1786 57.8139C24.7594 58.3947 25.0868 59.1816 25.0895 60.003V97.203C25.0868 98.0244 24.7594 98.8113 24.1786 99.3921C23.5978 99.9729 22.8108 100.3 21.9895 100.303H3.78945C2.96809 100.3 2.18113 99.9729 1.60034 99.3921C1.01954 98.8113 0.69209 98.0244 0.689453 97.203L0.689453 60.003C0.69209 59.1816 1.01954 58.3947 1.60034 57.8139C2.18113 57.2331 2.96809 56.9056 3.78945 56.903ZM29.1095 96.663V60.433H48.4595C55.3795 61.673 62.2994 65.433 69.2094 69.783H81.8895C87.6195 70.123 90.6295 75.943 85.0595 79.783C80.6095 83.043 74.7495 82.853 68.7395 82.323C64.5895 82.113 64.4095 87.683 68.7395 87.703C70.2395 87.823 71.8695 87.473 73.2995 87.463C80.7995 87.463 86.9795 86.023 90.7595 80.103L92.6895 75.593L111.539 66.243C120.979 63.143 127.679 73.013 120.729 79.873C107.578 89.4739 93.5097 97.7509 78.7295 104.583C68.3295 110.913 57.9195 110.693 47.5195 104.583L29.1195 96.663H29.1095ZM62.6895 8.083C62.5743 7.98839 62.4418 7.91707 62.2995 7.873C62.1941 7.849 62.0848 7.849 61.9795 7.873C61.6964 7.90145 61.4351 8.03748 61.2495 8.253L58.7195 11.253C58.4939 11.5242 58.1816 11.7092 57.8354 11.7767C57.4892 11.8441 57.1303 11.7898 56.8195 11.623C56.4795 11.443 56.1195 11.273 55.7595 11.123C55.3995 10.973 54.9695 10.813 54.5895 10.683C54.2095 10.553 53.8195 10.443 53.3695 10.313C52.9195 10.183 52.5395 10.083 52.1495 9.993C51.8263 9.91092 51.5385 9.72615 51.3293 9.46648C51.1201 9.20681 51.0008 8.88626 50.9895 8.553L50.6095 4.433C50.5936 4.2872 50.553 4.14516 50.4895 4.013C50.428 3.9052 50.3504 3.80741 50.2595 3.723C50.169 3.63998 50.0589 3.58146 49.9395 3.553C49.8045 3.52216 49.6644 3.52216 49.5295 3.553L44.2195 4.073C44.0775 4.0921 43.9393 4.13256 43.8095 4.193C43.6794 4.26397 43.564 4.35899 43.4695 4.473C43.3906 4.57164 43.3297 4.68333 43.2895 4.803C43.2689 4.91204 43.2689 5.02396 43.2895 5.133L43.6595 9.023C43.6938 9.38296 43.6005 9.74353 43.3957 10.0415C43.1909 10.3396 42.8878 10.556 42.5395 10.653C42.2195 10.763 41.8595 10.893 41.4495 11.063C41.0395 11.233 40.6895 11.403 40.3695 11.573H40.3095C39.9695 11.753 39.6095 11.943 39.3095 12.143H39.2095C38.8695 12.343 38.5395 12.553 38.2095 12.763C37.9365 12.9435 37.6134 13.033 37.2865 13.0186C36.9595 13.0042 36.6455 12.8868 36.3895 12.683L32.9295 10.003C32.8241 9.91827 32.706 9.85077 32.5795 9.803C32.4807 9.781 32.3782 9.781 32.2795 9.803C32.1366 9.82345 31.998 9.86738 31.8695 9.933H31.8095C31.7167 9.99875 31.6327 10.076 31.5595 10.163L28.2095 14.233C28.1085 14.3546 28.0306 14.4935 27.9795 14.643C27.9597 14.7488 27.9597 14.8573 27.9795 14.963V15.033C27.9899 15.1518 28.0239 15.2674 28.0795 15.373V15.423C28.1457 15.5214 28.2266 15.6091 28.3195 15.683L31.3195 18.213C31.5947 18.4379 31.7825 18.7521 31.8501 19.1011C31.9177 19.45 31.8608 19.8116 31.6895 20.123C31.5099 20.4482 31.3464 20.7819 31.1995 21.123C31.0332 21.5053 30.8863 21.8958 30.7595 22.293C30.6395 22.663 30.5095 23.063 30.3795 23.513C30.2495 23.963 30.1495 24.353 30.0595 24.733C29.9975 25.0608 29.8301 25.3593 29.5828 25.5832C29.3355 25.807 29.0218 25.9439 28.6895 25.973L24.5595 26.353C24.4168 26.3688 24.2781 26.4094 24.1495 26.473C24.0365 26.5353 23.935 26.6165 23.8495 26.713C23.7717 26.807 23.7138 26.9159 23.6795 27.033C23.6525 27.165 23.6525 27.301 23.6795 27.433L24.1995 32.743C24.2139 32.8891 24.2545 33.0314 24.3195 33.163C24.3862 33.293 24.4779 33.4085 24.5895 33.503C24.6905 33.5781 24.8016 33.6387 24.9195 33.683C25.0419 33.7041 25.167 33.7041 25.2895 33.683L29.1795 33.313C29.5299 33.2912 29.8773 33.3906 30.1631 33.5945C30.449 33.7984 30.656 34.0945 30.7495 34.433C30.8595 34.753 30.9995 35.123 31.1695 35.523C31.3395 35.923 31.4995 36.273 31.6795 36.613L31.7495 36.753C31.9095 37.063 32.0895 37.403 32.2895 37.753L32.9595 38.853C33.1326 39.126 33.216 39.4463 33.1981 39.769C33.1801 40.0918 33.0617 40.4009 32.8595 40.653L30.0895 44.063C30.0166 44.1619 29.9561 44.2694 29.9095 44.383C29.8938 44.479 29.8938 44.577 29.9095 44.673C29.9225 44.8193 29.9632 44.9619 30.0295 45.093C30.0941 45.213 30.1826 45.3185 30.2895 45.403C31.6695 46.553 33.0895 47.683 34.4595 48.843C34.5508 48.9088 34.6521 48.9594 34.7595 48.993C34.8848 49.0189 35.0141 49.0189 35.1395 48.993C35.2916 48.977 35.4402 48.9364 35.5795 48.873H35.6295C35.7242 48.8093 35.8144 48.7392 35.8995 48.663L38.3995 45.663C38.6242 45.3877 38.9377 45.1992 39.2862 45.1299C39.6347 45.0605 39.9965 45.1147 40.3095 45.283C40.654 45.4676 41.0078 45.6345 41.3695 45.783C41.7595 45.953 42.1495 46.093 42.5395 46.223C42.9295 46.353 43.2995 46.473 43.7595 46.603C44.2195 46.733 44.5895 46.833 44.9795 46.923C45.309 46.9979 45.6045 47.1798 45.8197 47.4403C46.035 47.7008 46.158 48.0253 46.1695 48.363L46.5495 52.433C46.5654 52.5769 46.6096 52.7162 46.6795 52.843C46.7348 52.9577 46.8131 53.0598 46.9095 53.143C47.0061 53.2168 47.1142 53.2742 47.2295 53.313C47.3649 53.3389 47.504 53.3389 47.6395 53.313L52.9395 52.793C53.0887 52.7785 53.2343 52.7379 53.3695 52.673C53.4884 52.6108 53.5965 52.5298 53.6895 52.433C53.7796 52.3222 53.8506 52.1972 53.8995 52.063C53.9299 51.9449 53.9299 51.8211 53.8995 51.703L53.5395 47.803C53.5033 47.4629 53.5822 47.1205 53.7635 46.8305C53.9447 46.5405 54.2179 46.3196 54.5395 46.203C54.9295 46.073 55.3195 45.923 55.6995 45.763H55.8195C56.1395 45.623 56.4595 45.463 56.8195 45.283H56.8795C57.2595 45.093 57.6295 44.893 57.9595 44.693L59.0695 44.023C59.3409 43.8492 59.6606 43.7661 59.9824 43.7859C60.3042 43.8057 60.6113 43.9272 60.8595 44.133L64.2395 46.893C64.3405 46.9681 64.4516 47.0287 64.5695 47.073C64.6746 47.0981 64.7843 47.0981 64.8895 47.073C65.0324 47.0661 65.1722 47.0286 65.2995 46.963C65.4137 46.8903 65.5151 46.799 65.5995 46.693C66.7495 45.313 67.8794 43.893 69.0395 42.523C69.1069 42.4364 69.1578 42.3381 69.1895 42.233C69.2105 42.1072 69.2105 41.9788 69.1895 41.853C69.1721 41.7011 69.1316 41.5527 69.0695 41.413C69.0047 41.293 68.9202 41.1848 68.8195 41.093L65.8195 38.653C65.5385 38.4304 65.3452 38.1156 65.2738 37.7642C65.2025 37.4129 65.2576 37.0476 65.4295 36.733C65.6141 36.3884 65.781 36.0346 65.9295 35.673C66.0994 35.263 66.2495 34.873 66.3695 34.513C66.4895 34.153 66.6095 33.733 66.7395 33.283C66.8695 32.833 66.9695 32.463 67.0595 32.063C67.1356 31.7286 67.322 31.4295 67.5886 31.2137C67.8551 30.9979 68.1865 30.8779 68.5294 30.873L72.6895 30.433C72.8353 30.4172 72.9773 30.3766 73.1095 30.313C73.215 30.2483 73.3124 30.1711 73.3995 30.083C73.4733 29.9864 73.5307 29.8783 73.5695 29.763C73.5909 29.6372 73.5909 29.5088 73.5695 29.383L73.0495 24.083C73.0322 23.9407 72.9916 23.8022 72.9295 23.673V23.613C72.8606 23.5077 72.7763 23.4133 72.6795 23.333C72.5808 23.2542 72.4691 23.1933 72.3495 23.153C72.2404 23.1324 72.1285 23.1324 72.0195 23.153L68.0895 23.433C67.7499 23.4656 67.409 23.3853 67.1198 23.2045C66.8305 23.0237 66.6089 22.7525 66.4895 22.433C66.3595 22.063 66.2195 21.673 66.0395 21.273C65.8595 20.873 65.6895 20.453 65.5195 20.123V20.053C65.3499 19.7104 65.163 19.3766 64.9594 19.053C64.7595 18.713 64.5295 18.373 64.2995 18.053C64.1117 17.7766 64.019 17.4467 64.0352 17.113C64.0515 16.7793 64.1758 16.4599 64.3895 16.203L67.1295 12.813C67.2162 12.709 67.2839 12.5905 67.3295 12.463C67.3506 12.3675 67.3506 12.2685 67.3295 12.173C67.3088 12.027 67.265 11.8852 67.1995 11.753V11.683C67.1407 11.5938 67.0701 11.513 66.9895 11.443L63.2395 8.363C63.0383 8.30993 62.8507 8.21446 62.6895 8.083ZM104.069 32.683C103.912 32.5488 103.729 32.4477 103.531 32.3859C103.334 32.324 103.125 32.3026 102.919 32.323C102.506 32.3698 102.126 32.5739 101.859 32.893L100.329 34.743C99.8433 34.4913 99.3384 34.2774 98.8195 34.103C98.2794 33.933 97.8195 33.783 97.2395 33.653L96.9995 31.073C96.9629 30.661 96.7653 30.2801 96.4495 30.013C96.2935 29.8807 96.1112 29.7829 95.9148 29.726C95.7183 29.6692 95.512 29.6545 95.3095 29.683L92.0495 30.003C91.6616 30.0555 91.3061 30.2474 91.0495 30.543C90.9137 30.6997 90.8117 30.8827 90.7498 31.0805C90.6878 31.2784 90.6673 31.4869 90.6895 31.693L90.9095 34.063C90.3812 34.2339 89.8692 34.4514 89.3795 34.713C88.8939 34.9527 88.4261 35.2268 87.9795 35.533L85.9195 33.873C85.7702 33.7347 85.5929 33.63 85.3997 33.5662C85.2065 33.5024 85.0017 33.4808 84.7995 33.503C84.3839 33.5504 84.0034 33.7586 83.7395 34.083L81.7395 36.573C81.6056 36.7308 81.5047 36.9138 81.4427 37.1111C81.3807 37.3085 81.3589 37.5163 81.3784 37.7223C81.398 37.9283 81.4586 38.1282 81.5567 38.3104C81.6547 38.4926 81.7883 38.6533 81.9495 38.783L83.6895 40.313C83.4369 40.7975 83.2261 41.3027 83.0595 41.823C82.8795 42.363 82.7295 42.823 82.5995 43.403L80.0195 43.643C79.6084 43.6827 79.2286 43.8797 78.9594 44.193C78.8368 44.3553 78.7495 44.5414 78.703 44.7395C78.6565 44.9375 78.6519 45.1431 78.6895 45.343L79.0095 48.593C79.0496 49.0011 79.2468 49.3776 79.5595 49.643C79.7137 49.7795 79.8948 49.8821 80.0912 49.9441C80.2876 50.0061 80.4948 50.0262 80.6995 50.003L83.0695 49.783C83.2332 50.3061 83.4406 50.8146 83.6895 51.303C83.9373 51.7971 84.211 52.2778 84.5095 52.743L82.8495 54.743C82.7123 54.8928 82.6092 55.0704 82.5471 55.2637C82.4849 55.457 82.4653 55.6614 82.4895 55.863C82.547 56.2561 82.7505 56.6132 83.0595 56.863L85.5895 59.033C85.7482 59.164 85.9323 59.2608 86.1301 59.3176C86.328 59.3744 86.5354 59.3898 86.7395 59.363C87.1539 59.3231 87.5388 59.1306 87.8195 58.823L89.3595 56.943C89.8428 57.2006 90.3482 57.4148 90.8695 57.583C91.3874 57.762 91.9149 57.9122 92.4495 58.033L92.6895 60.623C92.7326 61.0302 92.9293 61.4057 93.2395 61.673C93.3971 61.8063 93.5808 61.9053 93.7787 61.9638C93.9767 62.0223 94.1847 62.0391 94.3895 62.013L97.6395 61.693C98.0464 61.6489 98.4215 61.4524 98.6895 61.143C98.8252 60.9863 98.9272 60.8033 98.9891 60.6055C99.0511 60.4076 99.0716 60.1991 99.0495 59.993L98.8195 57.623C99.3491 57.4557 99.8614 57.2381 100.349 56.973C100.841 56.7302 101.318 56.4598 101.779 56.163L103.779 57.823C103.936 57.9587 104.119 58.0608 104.317 58.1227C104.515 58.1846 104.723 58.2052 104.929 58.183C105.135 58.164 105.335 58.1038 105.517 58.0058C105.7 57.9079 105.86 57.7743 105.989 57.613L108.069 55.093C108.201 54.9341 108.298 54.7503 108.357 54.5527C108.415 54.3551 108.433 54.1477 108.409 53.943C108.371 53.526 108.174 53.1396 107.859 52.863L105.979 51.343C106.263 50.863 106.501 50.3575 106.689 49.833C106.867 49.318 107.017 48.7939 107.139 48.263L109.729 48.023C110.12 47.9716 110.477 47.7753 110.729 47.473C110.863 47.3157 110.963 47.132 111.021 46.934C111.08 46.7359 111.096 46.5278 111.069 46.323L110.749 43.073C110.693 42.684 110.498 42.3286 110.199 42.073C110.044 41.9355 109.861 41.8317 109.663 41.768C109.465 41.7043 109.256 41.6822 109.049 41.703L106.679 41.933C106.501 41.4075 106.284 40.8961 106.029 40.403C105.8 39.9119 105.526 39.4432 105.209 39.003L106.879 36.943C107.014 36.7915 107.115 36.6137 107.177 36.4209C107.239 36.2281 107.26 36.0244 107.239 35.823C107.193 35.4096 106.989 35.03 106.669 34.763L104.169 32.713H104.089L104.069 32.683ZM94.1895 39.513C95.0377 39.4361 95.8928 39.521 96.7094 39.763C97.4922 40.0121 98.2215 40.4055 98.8595 40.923C99.4935 41.4469 100.02 42.0887 100.409 42.813C100.817 43.5564 101.062 44.3778 101.129 45.223C101.207 46.0713 101.122 46.9265 100.879 47.743C100.649 48.5286 100.265 49.2609 99.75 49.8976C99.2351 50.5343 98.5994 51.0629 97.8795 51.453C97.1333 51.8525 96.313 52.0941 95.4695 52.163C94.6212 52.2454 93.765 52.1605 92.9495 51.913C92.1642 51.6674 91.4316 51.2774 90.7895 50.763C90.161 50.2323 89.6385 49.5877 89.2495 48.863C88.8194 48.1185 88.5566 47.2893 88.4795 46.433C88.345 45.1852 88.5875 43.9257 89.1757 42.817C89.7639 41.7083 90.6708 40.8013 91.7794 40.213C92.5219 39.8031 93.3438 39.5576 94.1895 39.493V39.513ZM63.2495 4.933C63.5994 5.04295 63.9351 5.194 64.2495 5.383C64.4698 5.43576 64.6751 5.5384 64.8495 5.683L68.8795 9.033C69.2533 9.3394 69.5713 9.70817 69.8195 10.123L69.8995 10.253C70.1543 10.7247 70.3172 11.2405 70.3795 11.773C70.4492 12.3321 70.3911 12.8997 70.2094 13.433C70.0508 13.9015 69.8104 14.3383 69.4995 14.723L67.4395 17.283L67.5695 17.493C67.8317 17.9325 68.0688 18.3866 68.2794 18.853C68.5194 19.3197 68.7195 19.7497 68.8795 20.143L68.9594 20.343L71.6595 20.083C72.1836 20.0223 72.7145 20.0699 73.2195 20.223H73.2995C73.7631 20.3766 74.1963 20.6102 74.5795 20.913L74.7195 21.033C75.0765 21.3464 75.3774 21.7184 75.6095 22.133L75.6895 22.263C75.9193 22.7163 76.065 23.2076 76.1195 23.713C76.1195 25.053 76.4594 27.653 76.6395 29.053C76.6992 29.5588 76.6619 30.0713 76.5294 30.563V30.653C76.3768 31.1686 76.1217 31.6482 75.7794 32.063C75.4509 32.4699 75.0468 32.8094 74.5895 33.063C74.1147 33.3068 73.5997 33.4627 73.0695 33.523L69.8895 33.803L69.8095 34.093C69.6995 34.493 69.5595 34.943 69.3795 35.453C69.1995 35.963 69.0495 36.453 68.8795 36.823L68.7995 36.993L70.9895 38.763C71.4051 39.1224 71.745 39.5609 71.9895 40.053C72.172 40.492 72.2802 40.9584 72.3095 41.433V41.483C72.3767 42.0196 72.3324 42.5643 72.1795 43.083C72.0406 43.5702 71.8135 44.0278 71.5095 44.433L68.0195 48.653C67.6861 49.063 67.2749 49.4029 66.8095 49.653C66.338 49.9167 65.8171 50.0801 65.2794 50.133C64.7461 50.195 64.2057 50.1508 63.6895 50.003H63.6095C63.1543 49.8485 62.7284 49.6186 62.3495 49.323L59.7595 47.213L59.4995 47.363C59.0595 47.623 58.6295 47.853 58.2195 48.053C57.8095 48.253 57.4595 48.433 57.0495 48.613L56.6895 48.733L56.9695 51.433C57.0314 51.9888 56.9735 52.5515 56.7995 53.083C56.6308 53.5757 56.3732 54.0332 56.0395 54.433L55.9795 54.493C55.6559 54.8569 55.274 55.1644 54.8495 55.403H54.7495C54.2986 55.6301 53.8111 55.7757 53.3095 55.833C51.9695 55.833 49.3695 56.183 47.9695 56.363C47.4327 56.4222 46.8896 56.3781 46.3695 56.233C45.853 56.0773 45.3734 55.8188 44.9595 55.473H44.9095C44.5248 55.1319 44.2032 54.7257 43.9595 54.273C43.7097 53.8007 43.5535 53.2846 43.4995 52.753L43.2095 49.583L42.9295 49.503L41.5695 49.073C41.0895 48.913 40.5695 48.743 40.1995 48.563L40.0095 48.483L38.2095 50.673C37.8796 51.0466 37.4827 51.3552 37.0395 51.583L36.9295 51.653C36.4901 51.8588 36.021 51.9938 35.5395 52.053H35.4895C34.9495 52.1196 34.4017 52.0754 33.8795 51.923C33.399 51.7776 32.9486 51.5473 32.5495 51.243L28.3195 47.753C27.9117 47.4175 27.5722 47.0067 27.3195 46.543C27.0644 46.075 26.9015 45.5624 26.8395 45.033C26.7747 44.4937 26.8328 43.9467 27.0095 43.433C27.1574 42.972 27.3878 42.5417 27.6895 42.163L29.7995 39.573L29.6895 39.323C29.4695 38.953 29.2595 38.553 29.0495 38.133C28.7995 37.673 28.5895 37.233 28.3995 36.783L28.3095 36.553L25.6295 36.803C25.0776 36.868 24.5183 36.8134 23.9895 36.643C23.5235 36.4901 23.0896 36.2528 22.7095 35.943L22.5595 35.833C22.1518 35.4816 21.8128 35.0578 21.5595 34.583C21.3309 34.1327 21.1853 33.6449 21.1295 33.143C21.1295 31.793 20.7795 29.233 20.5995 27.813C20.5172 27.2626 20.5478 26.7012 20.6895 26.163C20.8451 25.6466 21.1036 25.167 21.4495 24.753C21.7869 24.3511 22.1933 24.0125 22.6495 23.753C23.1225 23.5067 23.6386 23.3539 24.1695 23.303L27.3395 23.013L27.4195 22.723C27.5395 22.333 27.6795 21.873 27.8495 21.373C28.0195 20.873 28.1895 20.373 28.3595 19.993L28.4395 19.803L26.3895 18.063C25.9928 17.7554 25.6541 17.3795 25.3895 16.953L25.3295 16.853C25.1005 16.4107 24.958 15.9287 24.9095 15.433V15.353C24.8526 14.811 24.907 14.2632 25.0695 13.743C25.2355 13.2269 25.5005 12.748 25.8495 12.333L29.1995 8.243C29.5055 7.86772 29.8785 7.5524 30.2995 7.313L30.4195 7.233C30.8888 6.97265 31.4057 6.80941 31.9395 6.753C32.4886 6.68324 33.0465 6.74142 33.5695 6.923C34.0372 7.08337 34.4737 7.32359 34.8595 7.633L37.4295 9.703L37.6895 9.503C38.0995 9.263 38.5195 9.043 38.9395 8.833C39.3595 8.623 39.8195 8.393 40.2295 8.213L40.4695 8.123L40.1995 5.433C40.1387 4.9089 40.1864 4.37792 40.3395 3.873V3.793C40.4931 3.32938 40.7266 2.89619 41.0295 2.513L41.1795 2.433C41.5236 2.02599 41.9408 1.68684 42.4095 1.433C42.8608 1.19469 43.3525 1.04211 43.8595 0.983003C45.1995 0.983003 47.7994 0.643003 49.1995 0.463003C49.7361 0.397774 50.2804 0.441998 50.7995 0.593003C51.3151 0.745681 51.7946 1.00076 52.2095 1.343C52.6117 1.67626 52.9504 2.07939 53.2095 2.533C53.4649 3.0187 53.6277 3.54771 53.6895 4.093L53.9695 7.273L54.2595 7.353C54.6495 7.463 55.1095 7.603 55.6195 7.773L56.9895 8.283L57.1895 8.373L58.9195 6.283C59.2572 5.87348 59.6716 5.5338 60.1395 5.283C60.618 5.0156 61.1448 4.84566 61.6895 4.783C62.2307 4.71597 62.78 4.76715 63.2995 4.933H63.2495ZM47.3995 16.543C48.1681 16.4781 48.9408 16.4781 49.7095 16.543C50.5097 16.6214 51.3002 16.7788 52.0695 17.013C52.8023 17.243 53.512 17.541 54.1895 17.903L54.2795 17.953C54.9131 18.3038 55.5154 18.7086 56.0795 19.163C57.2534 20.158 58.2332 21.3616 58.9695 22.713C59.3574 23.4061 59.666 24.1408 59.8895 24.903C60.1223 25.6711 60.2699 26.4626 60.3295 27.263C60.3993 28.0281 60.3993 28.7979 60.3295 29.563C60.2612 30.3639 60.107 31.1551 59.8695 31.923V32.023C59.6427 32.7139 59.3549 33.3832 59.0095 34.023C58.648 34.691 58.2298 35.3267 57.7595 35.923L57.6595 36.033C56.6855 37.1752 55.5091 38.1278 54.1895 38.843C53.49 39.2251 52.7527 39.5335 51.9895 39.763C51.2222 39.9854 50.4352 40.1327 49.6395 40.203C48.8575 40.2679 48.0714 40.2679 47.2895 40.203C46.489 40.1258 45.6984 39.9683 44.9295 39.733C44.2005 39.5011 43.4943 39.2032 42.8195 38.843C42.152 38.4769 41.5164 38.0554 40.9195 37.583C40.337 37.0938 39.8013 36.5515 39.3195 35.963C38.8307 35.3623 38.3957 34.7199 38.0195 34.043C37.6398 33.3436 37.3348 32.6062 37.1095 31.843C36.8766 31.0749 36.729 30.2834 36.6695 29.483C36.5996 28.7179 36.5996 27.9481 36.6695 27.183C36.7377 26.3821 36.8919 25.5909 37.1295 24.823C37.3576 24.0895 37.6556 23.3796 38.0195 22.703L38.0695 22.613C38.4154 21.9732 38.8205 21.3672 39.2795 20.803L39.3595 20.703C39.8287 20.1437 40.3512 19.6313 40.9195 19.173C41.5203 18.6874 42.1628 18.2558 42.8395 17.883C43.5351 17.5002 44.2692 17.1919 45.0295 16.963C45.8003 16.7415 46.5906 16.5942 47.3895 16.523L47.3995 16.543ZM49.3995 19.613C48.8074 19.558 48.2115 19.558 47.6195 19.613C47.0336 19.6617 46.454 19.7689 45.8895 19.933C45.3378 20.0966 44.8048 20.3178 44.2995 20.593C43.7819 20.8839 43.2901 21.2185 42.8295 21.593C42.4189 21.9266 42.0375 22.2946 41.6895 22.693C41.3508 23.116 41.0496 23.5677 40.7895 24.043V24.123C40.5216 24.6318 40.3007 25.164 40.1295 25.713C39.9216 26.2895 39.7741 26.886 39.6895 27.493C39.6394 28.0853 39.6394 28.6807 39.6895 29.273C39.7375 29.8631 39.8482 30.4463 40.0195 31.013C40.1816 31.5763 40.4063 32.1197 40.6895 32.633C40.9768 33.1496 41.3116 33.6384 41.6895 34.093C42.0415 34.5316 42.4368 34.9336 42.8695 35.293C43.3111 35.644 43.7829 35.9553 44.2795 36.223C44.7926 36.4918 45.3279 36.7159 45.8795 36.893C46.4418 37.0697 47.022 37.1838 47.6095 37.233C48.2115 37.288 48.8174 37.288 49.4195 37.233C50.0085 37.1834 50.5913 37.0762 51.1595 36.913C51.691 36.7469 52.2038 36.5257 52.6895 36.253C53.2092 35.9657 53.7013 35.6309 54.1595 35.253C54.5709 34.9131 54.9523 34.5384 55.2995 34.133C55.6765 33.6849 56.0113 33.2028 56.2995 32.693C56.5544 32.2036 56.7717 31.6954 56.9495 31.173V31.113C57.1232 30.546 57.2404 29.9631 57.2995 29.373C57.3495 28.7807 57.3495 28.1853 57.2995 27.593C57.2514 27.003 57.1408 26.4197 56.9695 25.853C56.8066 25.3011 56.5853 24.7681 56.3095 24.263C56.0245 23.7449 55.6895 23.256 55.3095 22.803C54.9574 22.3644 54.5621 21.9624 54.1295 21.603C53.7116 21.27 53.2667 20.9723 52.7995 20.713H52.7195C52.2065 20.4438 51.6712 20.2196 51.1195 20.043C50.5602 19.8675 49.9834 19.7535 49.3995 19.703V19.613ZM16.9395 86.283C17.644 86.281 18.3332 86.4881 18.92 86.8781C19.5068 87.2681 19.9646 87.8234 20.2356 88.4737C20.5066 89.124 20.5785 89.8401 20.4423 90.5314C20.306 91.2226 19.9678 91.8579 19.4703 92.3568C18.9728 92.8556 18.3385 93.1957 17.6477 93.3339C16.9568 93.472 16.2405 93.4021 15.5894 93.133C14.9383 92.8638 14.3817 92.4075 13.9901 91.8219C13.5985 91.2362 13.3895 90.5475 13.3895 89.843C13.3894 88.9006 13.7631 87.9966 14.4286 87.3292C15.0941 86.6619 15.997 86.2857 16.9395 86.283Z" fill="#6F8391"/>
</svg>
