<svg width="114" height="112" viewBox="0 0 114 112" fill="none" xmlns="http://www.w3.org/2000/svg">
<path d="M102.617 40.54C101.897 38.8072 102.717 36.8098 104.459 36.0893C106.192 35.3688 108.19 36.1897 108.91 37.9316C110.26 41.1602 111.3 44.5256 111.993 48.0096C112.677 51.4115 113.033 54.9319 113.033 58.5344C113.033 72.1784 107.925 84.6277 99.5162 94.0855C91.0161 103.644 79.1414 110.137 65.7528 111.697C63.8831 111.907 62.1959 110.566 61.977 108.696C61.7672 106.827 63.1079 105.139 64.9775 104.92C76.6424 103.561 87.0031 97.8978 94.4271 89.5527C101.76 81.3079 106.211 70.4456 106.211 58.5344C106.211 55.3879 105.9 52.3144 105.308 49.3412C104.687 46.2676 103.785 43.3309 102.617 40.54ZM78.7492 45.6839C78.731 45.7934 78.6854 45.9028 78.6307 46.0031C78.5577 46.2494 78.503 46.5321 78.4847 46.8513C78.4847 46.8787 78.4847 46.9151 78.4847 46.9425L77.0711 67.6456C77.29 68.3114 77.5818 68.8222 77.9466 69.1505C78.2841 69.4606 78.7128 69.6248 79.2509 69.643C79.2873 69.643 79.3329 69.643 79.3694 69.643L85.3067 70.0534C85.3159 70.0534 85.3341 70.0534 85.3523 70.0534C86.2735 70.1628 86.9575 69.9622 87.4409 69.4788C87.9881 68.9316 88.3438 68.0105 88.5353 66.761V66.7427L91.618 48.192C91.618 48.1646 91.618 48.1282 91.6271 48.1008C91.8278 47.052 91.6363 46.3406 91.1438 45.9028C90.5692 45.4012 89.5933 45.1367 88.2982 45.0455C88.2709 45.0455 88.2435 45.0455 88.207 45.0455L81.5218 44.5895V44.5803C80.5003 44.5074 79.7342 44.6624 79.2509 45.0455C79.032 45.2096 78.8769 45.4194 78.7492 45.6839ZM70.6413 68.1381C70.5045 67.9922 70.4224 67.8098 70.3859 67.6092L62.0226 49.7881C61.0832 47.9457 60.1347 47.8363 59.1679 48.3197C58.4839 48.6663 57.7543 49.25 57.0155 49.8337C56.5686 50.1893 56.1308 50.5359 55.7569 50.8095L54.024 52.0499L54.0149 52.059C52.7563 52.9346 51.3791 53.3632 50.0932 53.3815C49.245 53.3997 48.4424 53.2355 47.7219 52.8981C46.9832 52.5606 46.3447 52.059 45.8887 51.3932C45.3962 50.6818 45.0952 49.7972 45.077 48.7848C45.077 48.7848 45.305 48.1555 45.3506 48.1099L50.987 42.2729C49.8925 42.1817 48.9075 42.2638 47.9773 42.4827C46.5545 42.8201 45.2047 43.4859 43.7272 44.3615C43.5539 44.48 43.3441 44.5347 43.1253 44.5256L37.1241 44.1152L36.3489 55.4518L35.8746 62.7024L39.3677 62.9396C39.7051 62.9578 40.0152 63.1584 40.1612 63.4777L43.9826 71.3394C44.5389 72.4885 45.0314 73.4735 45.6881 74.1484C46.2991 74.7869 47.1382 75.2064 48.4606 75.3341C48.9531 75.3797 49.4365 75.3341 49.8925 75.179C50.1753 75.0878 50.458 74.951 50.7407 74.7686L48.2874 69.3238C48.0685 68.8404 48.2874 68.2749 48.7707 68.0652C49.2541 67.8463 49.8196 68.0652 50.0293 68.5486L52.6925 74.4768C53.7869 75.1334 54.8084 75.3797 55.7478 75.252C56.6051 75.1243 57.435 74.6774 58.2467 73.9022L54.3159 66.688C54.0696 66.232 54.2338 65.6483 54.6989 65.3929C55.155 65.1467 55.7387 65.3108 55.994 65.776L60.1347 73.3732C60.9281 73.7654 61.7034 73.8931 62.4603 73.738C63.1808 73.5921 63.9287 73.1817 64.6857 72.4977L61.0285 64.2985C60.8096 63.8151 61.0285 63.2405 61.5118 63.0308C61.9952 62.8119 62.5698 63.0308 62.7796 63.5233L66.5736 72.0052C67.1208 72.37 67.7684 72.4977 68.3977 72.4429C68.954 72.3882 69.5012 72.1876 69.9572 71.8775C70.395 71.5765 70.7598 71.1661 70.9422 70.6918C71.152 70.172 71.1794 69.5518 70.9422 68.8587L70.6413 68.1381ZM75.4294 68.7218L72.8849 68.5486C73.1585 69.5791 73.0764 70.5277 72.7481 71.3576C72.4106 72.2058 71.8087 72.9081 71.0699 73.4188C70.3494 73.9113 69.4921 74.2305 68.5983 74.3126C67.7319 74.3947 66.8472 74.2579 66.0355 73.8566C65.0049 74.796 63.9378 75.3614 62.8616 75.5894C61.7763 75.8083 60.7001 75.6715 59.633 75.2155C58.5204 76.2917 57.3256 76.9393 56.0396 77.1217C54.7354 77.3132 53.3856 77.0213 51.9811 76.2461C51.5068 76.5653 51.0143 76.8116 50.5036 76.9849C49.7831 77.2311 49.0443 77.3132 48.2782 77.2311C46.4451 77.0487 45.2503 76.4285 44.3291 75.48C43.4445 74.5771 42.8881 73.4644 42.2588 72.1693L38.6837 64.8092L35.5371 64.5903C35.2909 65.4932 34.917 65.6757 34.4062 66.2594C33.2571 67.5453 32.2629 68.2202 30.4936 68.1199C27.9217 67.974 23.3615 68.3114 21.884 66.3597C21.1362 65.3656 20.6893 63.8151 20.6072 61.5624C20.6072 61.535 20.6072 61.5077 20.5981 61.4803L20.3883 43.8051C20.2332 41.8899 20.6437 40.5674 21.4645 39.7101C22.2944 38.8345 23.4892 38.4971 24.912 38.5336C24.9576 38.5336 24.9941 38.5336 25.0305 38.5336L32.2903 39.0352V39.0443C33.6584 39.1173 34.8258 39.4365 35.6831 40.0749C36.3762 40.5856 36.8414 41.2788 37.0511 42.1908L42.9702 42.5921C44.5298 41.6892 45.9708 41.0052 47.5395 40.6221C49.0808 40.2573 50.7134 40.2026 52.6286 40.5674L54.7901 38.342C54.8266 38.2964 54.8631 38.26 54.9178 38.2235C55.5198 37.7219 56.1856 37.3297 56.8878 37.0196C57.6266 36.6913 58.4109 36.4633 59.2226 36.3082C60.5086 36.0711 61.8493 36.0346 63.1444 36.144C64.6127 36.2717 66.0264 36.5909 67.2394 36.9922C69.556 37.7766 71.4986 39.3453 73.3774 40.8684C73.7969 41.2058 74.2164 41.5524 74.718 41.9263C74.7363 41.9355 74.7545 41.9537 74.7728 41.9628L77.5089 44.0787C77.6639 43.8872 77.8463 43.7139 78.047 43.5589C78.9225 42.8748 80.1173 42.5921 81.6313 42.6924V42.6833L88.3165 43.1393C88.3438 43.1393 88.3712 43.1393 88.3894 43.1485C90.104 43.2579 91.4721 43.6683 92.3841 44.48C93.3965 45.3829 93.816 46.678 93.4786 48.4656C93.4786 48.4838 93.4694 48.493 93.4694 48.5112L90.3868 67.0437C90.1405 68.7036 89.6024 69.9804 88.7542 70.8286C87.8513 71.7407 86.6566 72.1328 85.1335 71.9596L79.1961 71.5491H79.187C78.1564 71.5309 77.2991 71.1935 76.606 70.555C76.1317 70.099 75.7304 69.4788 75.4294 68.7218ZM27.6937 58.1696C28.4051 58.2152 28.9432 58.8354 28.8976 59.5559C28.8519 60.2673 28.2318 60.8145 27.5113 60.7598C26.7999 60.7142 26.2618 60.094 26.3074 59.3826C26.353 58.6712 26.9732 58.1149 27.6937 58.1696ZM83.9843 62.0184C84.6957 62.064 85.2338 62.6842 85.1882 63.3956C85.1426 64.107 84.5224 64.6542 83.8019 64.5995C83.0905 64.5539 82.5433 63.9337 82.598 63.2223C82.6436 62.5109 83.2638 61.9728 83.9843 62.0184ZM34.5978 53.1078L35.2544 43.5862C35.2909 43.0846 34.9717 42.4553 34.5704 42.1543C34.0414 41.7622 33.2206 41.5615 32.1991 41.5068L24.912 41.0143C24.2462 40.9687 23.3342 41.0964 22.8508 41.598C22.4039 42.0631 22.1941 42.9113 22.3036 44.252C22.3036 44.2794 22.3036 44.3067 22.3036 44.3341L22.5133 60.8875V60.9148C22.5772 62.748 22.8964 63.9428 23.4071 64.6268C23.8631 65.2379 31.6245 66.4874 32.9652 64.9734C33.4942 64.3714 33.8043 63.4047 33.9229 62.1278H33.9137L34.5704 53.0896L34.5978 53.1078ZM98.4947 22.6186L76.4053 26.5768L80.9837 20.0832C74.0067 12.641 66.2453 9.96872 56.9699 12.7322C66.8016 0.547424 79.871 0.529183 90.0949 7.11406L94.7554 0.483582L98.4947 22.6186ZM36.6772 83.8707L32.0988 90.3644C39.0758 97.8066 46.8372 100.479 56.1126 97.7154C46.2718 109.891 33.2023 109.909 22.9785 103.324L18.3089 109.955L14.5786 87.8289L36.6772 83.8707ZM12.3624 74.8507C13.1832 76.5471 12.4718 78.5809 10.7755 79.3926C9.07909 80.2134 7.04526 79.5021 6.23355 77.8057C4.51893 74.2488 3.18736 70.4729 2.29357 66.5147C1.41802 62.6568 0.952881 58.6804 0.952881 54.6218C0.952881 41.2605 5.85961 29.0302 13.9767 19.6454C22.1941 10.1329 33.704 3.54801 46.7369 1.65098C48.5975 1.38649 50.3212 2.68158 50.5857 4.54213C50.8502 6.40267 49.5551 8.12641 47.6945 8.3909C36.3306 10.0417 26.2891 15.7875 19.1114 24.087C12.0523 32.277 7.77488 42.9387 7.77488 54.6218C7.77488 58.2243 8.17618 61.7083 8.92404 65.0281C9.70839 68.4482 10.8667 71.7407 12.3624 74.8507Z" fill="#6F8391"/>
</svg>
