<svg width="120" height="127" viewBox="0 0 120 127" fill="none" xmlns="http://www.w3.org/2000/svg">
<path d="M60.1685 0.505808C62.2393 0.505808 64.2786 0.640177 66.1755 0.956339C68.0438 1.20115 69.8872 1.60843 71.6847 2.17356C73.4868 2.71894 75.2494 3.39869 77.012 4.25233C78.7272 5.06645 80.4898 6.06236 82.2524 7.14521C85.2322 9.04219 88.1646 10.5756 91.1524 11.8007C97.0341 14.1548 103.254 15.5556 109.577 15.9503C112.786 16.1795 116.082 16.3139 119.512 16.3139V47.9301C119.512 53.9372 118.745 59.6281 117.212 65.0503C115.739 70.3951 113.646 75.5493 110.976 80.4079C108.317 85.2597 105.17 89.828 101.586 94.0424C97.9461 98.3525 94.0052 102.399 89.7929 106.151C85.5248 109.915 81.0294 113.412 76.3323 116.624C71.6372 119.881 66.8948 122.908 62.1524 125.659L60.2554 126.789L58.3584 125.659C53.4832 122.836 48.7213 119.822 44.0837 116.624C39.3602 113.449 34.8625 109.949 30.6231 106.151C26.4133 102.399 22.4751 98.3524 18.8382 94.0424C15.2631 89.8102 12.1028 85.2444 9.40071 80.4079C6.77602 75.5277 4.68517 70.3788 3.16441 65.0503C1.6213 59.4759 0.860502 53.714 0.903853 47.9301V16.3139C4.34212 16.3139 7.63811 16.1795 10.8472 15.9503C14.0061 15.7309 17.1446 15.2792 20.2372 14.5987C23.2644 13.919 26.2917 13.0179 29.2715 11.8007C32.3636 10.5528 35.3282 9.00961 38.1241 7.19264C41.6018 4.93208 45.127 3.26432 48.6048 2.16566C52.3503 1.01745 56.2513 0.457502 60.1685 0.505808ZM111.561 24.0836C105.577 23.7933 99.65 22.793 93.903 21.1038C88.1863 19.3985 82.7412 16.8889 77.7313 13.6503C75.1326 11.9445 72.3105 10.6066 69.3451 9.67451C66.3829 8.77926 63.3024 8.3369 60.208 8.36244C57.0906 8.34228 53.9874 8.78444 50.9998 9.67451C48.03 10.5763 45.2114 11.9163 42.6373 13.6503C37.6186 16.9065 32.1595 19.4272 26.426 21.1354C20.8221 22.7636 14.9573 23.7595 8.80791 24.1231V47.9697C8.80791 53.21 9.48766 58.2212 10.8472 63.0506C12.2322 67.838 14.1406 72.4582 16.5381 76.8274C18.9642 81.2421 21.8238 85.4043 25.0745 89.2525C28.3704 93.1334 31.8877 96.7456 35.6817 100.176C39.4756 103.614 43.4514 106.776 47.6089 109.708C51.806 112.649 56.0109 115.312 60.208 117.747C64.5055 115.245 68.6958 112.563 72.7675 109.708C76.9525 106.785 80.9493 103.601 84.7343 100.176C88.5282 96.7456 92.0534 93.1334 95.3494 89.2525C98.6004 85.4046 101.46 81.2423 103.886 76.8274C106.273 72.4636 108.153 67.8414 109.49 63.0506C110.891 58.147 111.588 53.0693 111.561 47.9697V24.0836Z" fill="#BC2227"/>
<path fill-rule="evenodd" clip-rule="evenodd" d="M89.6347 37.7261L86.1569 34.7383L82.9479 35.015L48.4862 75.7051L36.7487 58.9485L33.587 58.411L29.9275 61.0272L29.3821 64.1889L44.4709 85.7353L46.1861 86.6838L49.7983 86.9051L51.6478 86.0989L89.8639 40.9272L89.6347 37.7261Z" fill="#BC2227"/>
</svg>
